<svg id="Layer_1" data-name="Layer 1" xmlns="http://www.w3.org/2000/svg" xmlns:xlink="http://www.w3.org/1999/xlink" viewBox="0 0 512 512"><defs><style>.cls-1{stroke:#4d4d4d;fill:url(#radial-gradient);}.cls-1,.cls-10,.cls-11,.cls-12,.cls-15,.cls-2,.cls-4,.cls-6,.cls-7,.cls-9{stroke-miterlimit:10;}.cls-1,.cls-2,.cls-4,.cls-6{stroke-width:3px;}.cls-2,.cls-4{stroke:#b3b3b3;}.cls-2{fill:url(#linear-gradient);}.cls-3{fill:#4d4d4d;opacity:0.31;}.cls-11,.cls-15,.cls-4,.cls-6,.cls-7{fill:none;}.cls-5{fill:url(#linear-gradient-2);}.cls-6,.cls-7{stroke:lime;}.cls-8{fill:url(#linear-gradient-3);}.cls-11,.cls-12,.cls-9{stroke:#999;stroke-width:2px;}.cls-9{fill:url(#linear-gradient-4);}.cls-10{stroke:#000;}.cls-12{fill:url(#linear-gradient-5);}.cls-13{fill:#999;}.cls-14{fill:#666;}.cls-14,.cls-15{opacity:0.51;}.cls-15{stroke:#666;}</style><radialGradient id="radial-gradient" cx="8.22" cy="256.79" r="132.02" gradientTransform="translate(31.17 -134.4) scale(0.5 1.52)" gradientUnits="userSpaceOnUse"><stop offset="0" stop-color="#fff"/><stop offset="0.36"/></radialGradient><linearGradient id="linear-gradient" x1="261.09" y1="195.45" x2="261.09" y2="316.55" gradientUnits="userSpaceOnUse"><stop offset="0" stop-color="#fff"/><stop offset="1" stop-color="#ccc"/></linearGradient><linearGradient id="linear-gradient-2" x1="342.61" y1="234.97" x2="388.48" y2="280.83" xlink:href="#linear-gradient"/><linearGradient id="linear-gradient-3" x1="56.58" y1="222.71" x2="80.39" y2="246.52" xlink:href="#linear-gradient"/><linearGradient id="linear-gradient-4" x1="173.34" y1="243.76" x2="173.34" y2="225.47" gradientUnits="userSpaceOnUse"><stop offset="0" stop-color="#fff"/><stop offset="1" stop-color="gray"/></linearGradient><linearGradient id="linear-gradient-5" x1="70.92" y1="243.76" x2="70.92" y2="225.47" xlink:href="#linear-gradient-4"/></defs><title>360</title><path class="cls-1" d="M31.21,202.62h8.14A3.67,3.67,0,0,1,43,206.29V310.95a0,0,0,0,1,0,0H31.21a3.67,3.67,0,0,1-3.67-3.67v-101A3.67,3.67,0,0,1,31.21,202.62Z"/><path class="cls-2" d="M40.26,198.34a3.64,3.64,0,0,1,3.79-2.89c21.39,1.26,165.72,9.62,216.43,9.62s194.51-5.21,216.31-6a3.64,3.64,0,0,1,3.67,2.75c1.41,5.65,4,21.08,4,58.4,0,34-2.52,48.26-3.94,53.61a3.65,3.65,0,0,1-3.67,2.73c-21.6-.79-165.74-6-216.37-6s-195,5.23-216.41,6a3.64,3.64,0,0,1-3.71-2.88c-1.08-5.17-2.64-19.29-2.64-57.7S39.18,203.55,40.26,198.34Z"/><circle class="cls-3" cx="429.74" cy="241.06" r="2.5"/><circle class="cls-3" cx="429.74" cy="276.18" r="2.5"/><path class="cls-4" d="M451.88,213.21h1.63a14.66,14.66,0,0,1,14.66,14.66s1.22,22.52,1.22,30-1.22,30-1.22,30a14.66,14.66,0,0,1-14.66,14.66h-1.63a14.66,14.66,0,0,1-14.66-14.66s1.22-22.51,1.22-30-1.22-30-1.22-30A14.66,14.66,0,0,1,451.88,213.21Z"/><circle class="cls-5" cx="365.55" cy="257.9" r="32.43"/><path class="cls-6" d="M386,256.52a20.49,20.49,0,0,0-19.08-19.08"/><path class="cls-6" d="M364.17,237.44a20.5,20.5,0,0,0-19.09,19.08"/><path class="cls-6" d="M345.08,259.28a20.51,20.51,0,0,0,19.09,19.08"/><path class="cls-6" d="M366.93,278.36A20.5,20.5,0,0,0,386,259.28"/><circle class="cls-7" cx="365.55" cy="257.9" r="2.95"/><line class="cls-7" x1="364.78" y1="257.9" x2="360.66" y2="257.9"/><circle class="cls-8" cx="68.48" cy="234.61" r="16.83"/><rect class="cls-9" x="57.3" y="225.47" width="232.1" height="18.29" rx="9.14" ry="9.14"/><rect class="cls-10" x="82.04" y="273.58" width="33.51" height="16.1" rx="7.76" ry="7.76"/><rect class="cls-11" x="127.04" y="273.58" width="63.55" height="16.1" rx="8.05" ry="8.05"/><rect class="cls-11" x="199.56" y="273.58" width="63.55" height="16.1" rx="8.05" ry="8.05"/><path class="cls-12" d="M57.3,234.61a9.17,9.17,0,0,0,9.14,9.15h15.2a15.82,15.82,0,0,0,0-18.29H66.44A9.16,9.16,0,0,0,57.3,234.61Z"/><circle class="cls-11" cx="278.4" cy="281.63" r="6.31"/><circle class="cls-13" cx="429.69" cy="240.4" r="2.44"/><circle class="cls-13" cx="429.69" cy="275.32" r="2.44"/><polygon class="cls-14" points="70.92 230.41 67.44 236.44 74.41 236.44 70.92 230.41"/><line class="cls-15" x1="67.44" y1="238.01" x2="74.41" y2="238.01"/></svg>