<svg id="Layer_1" data-name="Layer 1" xmlns="http://www.w3.org/2000/svg" xmlns:xlink="http://www.w3.org/1999/xlink" viewBox="0 0 512 512"><defs><style>.cls-1{fill:#1a1a1a;}.cls-2{fill:#232323;}.cls-3,.cls-5,.cls-7{fill:#333;}.cls-4{stroke:#1a1a1a;stroke-width:0.5px;}.cls-4,.cls-5,.cls-6,.cls-7{stroke-miterlimit:10;}.cls-5{stroke:url(#linear-gradient);}.cls-6{fill:none;stroke:#000;}.cls-7{stroke:url(#linear-gradient-2);}.cls-8{fill:gray;}</style><linearGradient id="linear-gradient" x1="430.08" y1="290.84" x2="430.08" y2="282.43" gradientUnits="userSpaceOnUse"><stop offset="0" stop-color="#4d4d4d"/><stop offset="0.47"/></linearGradient><linearGradient id="linear-gradient-2" x1="60.1" y1="289.24" x2="68.51" y2="289.24" xlink:href="#linear-gradient"/></defs><title>onex</title><path d="M41.29,298.57h6.4V303s0,.67-3.2.67-3.2-.67-3.2-.67Z"/><path d="M479.52,298.57h6.39V303s0,.67-3.2.67-3.19-.67-3.19-.67Z"/><rect x="42.75" y="253.66" width="439.96" height="28.8"/><polygon class="cls-1" points="39.76 300.05 39.76 274.07 60.14 274.07 60.14 278.34 257.5 278.34 257.5 274.07 487.5 274.07 487.5 300.05 39.76 300.05"/><path class="cls-2" d="M486,275.58v23H41.26v-23H58.64v4.26H259v-4.26H486m3-3H256v4.26H61.64v-4.26H38.26v29H489v-29Z"/><rect class="cls-3" x="445" y="281.67" width="21.89" height="9.93"/><rect class="cls-4" x="445.9" y="282.35" width="20.14" height="8.56"/><rect class="cls-3" x="448.03" y="283.57" width="15.71" height="1.91"/><circle class="cls-5" cx="430.08" cy="286.63" r="3.7"/><path class="cls-6" d="M420.36,283.53a3.7,3.7,0,0,0,0,6.2"/><path class="cls-6" d="M422.11,284.31a2.76,2.76,0,0,0,0,4.65"/><path class="cls-6" d="M423.92,284.89a2.08,2.08,0,0,0,0,3.49"/><circle class="cls-7" cx="64.31" cy="289.24" r="3.7"/><rect class="cls-3" x="80.58" y="283.01" width="20.76" height="12.46" rx="6.23" ry="6.23"/><rect class="cls-1" x="24.5" y="209.88" width="463" height="51.77"/><path class="cls-2" d="M486,211.38v48.77H26V211.38H486m3-3H23v54.77H489V208.38Z"/><circle class="cls-8" cx="455.95" cy="235.76" r="9.43"/><rect class="cls-3" x="69.51" y="269.55" width="178.26" height="0.99"/><polygon class="cls-1" points="249.27 268.05 68.01 268.05 68.01 272.04 249.27 272.04 249.27 268.05 249.27 268.05"/></svg>