<svg id="Layer_1" data-name="Layer 1" xmlns="http://www.w3.org/2000/svg" xmlns:xlink="http://www.w3.org/1999/xlink" viewBox="0 0 512 512"><defs><style>.cls-1{fill:url(#linear-gradient);}.cls-2{fill:#333;}.cls-3{fill:#3a3f45;}.cls-3,.cls-4,.cls-6{stroke:#333;stroke-miterlimit:10;}.cls-3,.cls-6{stroke-width:3px;}.cls-5{fill:#fff;opacity:0.3;}.cls-6{fill:url(#linear-gradient-2);}.cls-7{fill:#009245;}.cls-8{fill:#0071bc;}</style><linearGradient id="linear-gradient" x1="254.62" y1="214.55" x2="254.62" y2="297.5" gradientUnits="userSpaceOnUse"><stop offset="0" stop-color="#333"/><stop offset="0.6"/></linearGradient><linearGradient id="linear-gradient-2" x1="40.44" y1="188.76" x2="185.99" y2="272.8" gradientUnits="userSpaceOnUse"><stop offset="0" stop-color="#333"/><stop offset="0.67"/></linearGradient></defs><title>ps4</title><rect class="cls-1" x="42.43" y="214.55" width="424.39" height="82.94"/><path class="cls-2" d="M465.32,216.05V296H43.93V216.05H465.32m3-3H40.93V299H468.32V213.05Z"/><path class="cls-3" d="M22.27,300.47H200.11V263.64H22l-2.67,33.69A2.9,2.9,0,0,0,22.27,300.47Z"/><path class="cls-3" d="M489.73,300.47H212.46V263.64H488.4l4.22,33.56A2.91,2.91,0,0,1,489.73,300.47Z"/><rect class="cls-4" x="61.28" y="251.64" width="211.13" height="8.72" rx="1.94" ry="1.94"/><rect class="cls-5" x="300.06" y="251.42" width="23.14" height="9.16"/><rect class="cls-5" x="340.34" y="251.42" width="23.14" height="9.16"/><rect class="cls-4" x="301.77" y="252.73" width="19.72" height="6.55"/><rect class="cls-2" x="304.01" y="254.36" width="15.23" height="0.79"/><rect class="cls-2" x="63.99" y="254.71" width="205.7" height="2.57"/><rect class="cls-4" x="342.05" y="252.73" width="19.72" height="6.55"/><rect class="cls-2" x="344.3" y="254.36" width="15.23" height="0.79"/><path class="cls-6" d="M23.42,248.36H200.11V211.53H29a2.91,2.91,0,0,0-2.9,2.68Z"/><path class="cls-3" d="M488.18,248.36H212.46V211.53H481.08a2.9,2.9,0,0,1,2.88,2.55Z"/><rect class="cls-7" x="203.75" y="212.03" width="5" height="34.3"/><path class="cls-2" d="M208.25,212.53v33.3h-4v-33.3h4m1-1h-6v35.3h6v-35.3Z"/><rect class="cls-8" x="203.79" y="265.67" width="5" height="34.3"/><path class="cls-2" d="M208.29,266.17v33.3h-4v-33.3h4m1-1h-6v35.3h6v-35.3Z"/></svg>