<svg id="Layer_1" data-name="Layer 1" xmlns="http://www.w3.org/2000/svg" xmlns:xlink="http://www.w3.org/1999/xlink" viewBox="0 0 512 512"><defs><style>.cls-1,.cls-2,.cls-6{stroke:#000;}.cls-1,.cls-10,.cls-11,.cls-12,.cls-13,.cls-15,.cls-17,.cls-19,.cls-2,.cls-5,.cls-6,.cls-7,.cls-9{stroke-miterlimit:10;}.cls-1,.cls-12,.cls-13,.cls-15,.cls-17,.cls-19,.cls-2,.cls-5,.cls-6,.cls-7{stroke-width:3px;}.cls-2{fill:#1a1a1a;}.cls-3{opacity:0.53;}.cls-21,.cls-4{fill:#333;}.cls-10,.cls-5,.cls-7{fill:gray;}.cls-5{stroke:url(#linear-gradient);}.cls-11,.cls-13,.cls-6,.cls-9{fill:none;}.cls-7{stroke:url(#linear-gradient-2);}.cls-8{fill:#666;}.cls-10,.cls-11,.cls-9{stroke:#666;}.cls-9{stroke-width:2px;}.cls-12{stroke:url(#linear-gradient-3);}.cls-13{stroke:#333;}.cls-14{fill:url(#radial-gradient);}.cls-15{stroke:url(#linear-gradient-4);}.cls-16{fill:url(#radial-gradient-2);}.cls-17{stroke:url(#linear-gradient-5);}.cls-18{fill:url(#radial-gradient-3);}.cls-19{stroke:url(#linear-gradient-6);}.cls-20{fill:url(#radial-gradient-4);}.cls-21{opacity:0.5;}.cls-22{opacity:0.66;}</style><linearGradient id="linear-gradient" x1="250.06" y1="290.99" x2="261.94" y2="279.1" gradientUnits="userSpaceOnUse"><stop offset="0"/><stop offset="1" stop-color="#4d4d4d"/></linearGradient><linearGradient id="linear-gradient-2" x1="245.74" y1="263.92" x2="266.26" y2="243.41" xlink:href="#linear-gradient"/><linearGradient id="linear-gradient-3" x1="98.84" y1="290.8" x2="120.54" y2="269.1" xlink:href="#linear-gradient"/><radialGradient id="radial-gradient" cx="109.69" cy="261.68" fx="117.74487636195285" r="8.06" gradientUnits="userSpaceOnUse"><stop offset="0.53"/><stop offset="1" stop-color="#4d4d4d"/></radialGradient><linearGradient id="linear-gradient-4" x1="152.41" y1="290.8" x2="174.11" y2="269.1" xlink:href="#linear-gradient"/><radialGradient id="radial-gradient-2" cx="163.26" cy="261.68" fx="171.31811854945377" r="8.06" xlink:href="#radial-gradient"/><linearGradient id="linear-gradient-5" x1="332.04" y1="290.8" x2="353.74" y2="269.1" xlink:href="#linear-gradient"/><radialGradient id="radial-gradient-3" cx="342.89" cy="261.68" fx="350.9460275279672" r="8.06" xlink:href="#radial-gradient"/><linearGradient id="linear-gradient-6" x1="385.61" y1="290.8" x2="407.31" y2="269.1" xlink:href="#linear-gradient"/><radialGradient id="radial-gradient-4" cx="396.46" cy="261.68" fx="404.51926971546817" r="8.06" xlink:href="#radial-gradient"/></defs><title>xbox</title><path class="cls-1" d="M56.34,246.46h125.6l-1.54,75.82c0,1.42-.37,2.51-.79,2.51,0,0-45.35,2.07-60.47,2.07s-60.73-2.07-60.73-2.07c-.42,0-.77-1.11-.79-2.54Z"/><path class="cls-1" d="M328.93,246.46H454.54L453,322.28c0,1.42-.38,2.51-.8,2.51,0,0-45.35,2.07-60.47,2.07S331,324.79,331,324.79c-.42,0-.77-1.11-.8-2.54Z"/><path class="cls-2" d="M42.61,239.39H469.39l-5.23,75.82a2.69,2.69,0,0,1-2.69,2.51s-154.1,2.07-205.47,2.07c-51.59,0-206.34-2.07-206.34-2.07a2.7,2.7,0,0,1-2.7-2.54Z"/><path class="cls-3" d="M42.61,231.38H469.39l-5.23,75.81a2.69,2.69,0,0,1-2.69,2.52s-154.1,2.07-205.47,2.07c-51.59,0-206.34-2.07-206.34-2.07a2.71,2.71,0,0,1-2.7-2.55Z"/><path class="cls-2" d="M25.74,197.13a2.69,2.69,0,0,1,2.47-2.69c15.25-1.24,98-7.76,163.41-8.93,2.83,0,5.58,0,8.24.2,21.72,1.38,56.14,8.55,56.14,8.55s33.07-8.34,54.94-8.91c66.58-1.75,156.79,7.87,172.83,9.1a2.69,2.69,0,0,1,2.49,2.69V298.77a3.1,3.1,0,0,1-3,3.1c-23.22.59-174.16,4.42-227.25,4.42s-204-3.83-227.25-4.42a3.1,3.1,0,0,1-3-3.1Z"/><path class="cls-4" d="M309.18,205.84,307.8,187c-16.92,0-53.09,8.4-53.09,8.4s-27.35-5.67-47.61-7.45c-.9-.08-2-.24-2.89-.3L203.75,204Z"/><path class="cls-2" d="M202.65,196.07s40-1.81,53.35-1.81,53.35,1.81,53.35,1.81V305.39s-40.75.9-54.34.9c-13.09,0-52.36-.9-52.36-.9Z"/><circle class="cls-5" cx="256" cy="285.05" r="6.9"/><line class="cls-6" x1="256" y1="229.5" x2="256" y2="205.19"/><line class="cls-6" x1="81.09" y1="227.06" x2="81.09" y2="202.75"/><circle class="cls-7" cx="256" cy="253.67" r="13.01"/><polygon class="cls-8" points="256 246.52 250.43 256.17 261.57 256.17 256 246.52"/><line class="cls-9" x1="250.43" y1="258.68" x2="261.57" y2="258.68"/><circle class="cls-10" cx="256" cy="285.05" r="2.36"/><line class="cls-11" x1="256" y1="284.21" x2="256" y2="281.36"/><rect class="cls-12" x="94.38" y="269.6" width="30.61" height="20.71" rx="10.35" ry="10.35"/><line class="cls-13" x1="117.56" y1="279.95" x2="101.81" y2="279.95"/><circle class="cls-14" cx="109.69" cy="258.68" r="4.67"/><rect class="cls-15" x="147.95" y="269.6" width="30.61" height="20.71" rx="10.35" ry="10.35"/><line class="cls-13" x1="171.14" y1="279.95" x2="155.38" y2="279.95"/><circle class="cls-16" cx="163.26" cy="258.68" r="4.67"/><rect class="cls-17" x="327.58" y="269.6" width="30.61" height="20.71" rx="10.35" ry="10.35"/><line class="cls-13" x1="350.54" y1="279.95" x2="334.78" y2="279.95"/><circle class="cls-18" cx="342.89" cy="258.68" r="4.67"/><rect class="cls-19" x="381.15" y="269.6" width="30.61" height="20.71" rx="10.35" ry="10.35"/><line class="cls-13" x1="404.11" y1="279.95" x2="388.36" y2="279.95"/><circle class="cls-20" cx="396.46" cy="258.68" r="4.67"/><line class="cls-6" x1="202.65" y1="185.92" x2="202.65" y2="202.75"/><line class="cls-6" x1="309.35" y1="185.92" x2="309.35" y2="200.67"/><path class="cls-21" d="M192.79,187.06s3.72,0,4.9.06c.9,0,3.41.23,3.41.23V304.14l-8.31-.16Z"/><path class="cls-21" d="M319.2,186.75s-3.74,0-4.93.08l-3.39.08V304.14l8.32-.16Z"/><polyline class="cls-6" points="486.5 202.75 319.2 202.75 309.35 204.7 256 204.7 202.66 204.7 192.79 202.75 25.5 202.75"/><polyline class="cls-6" points="486.5 227.06 319.2 227.06 309.35 229.01 256 229.01 202.66 229.01 192.79 227.06 25.5 227.06"/><polygon class="cls-22" points="486.26 227.06 319.2 227.06 309.35 229.06 202.66 229.06 192.79 227.06 81.09 227.06 81.09 202.75 192.79 202.75 202.66 204.75 309.18 204.75 319.2 202.75 486.26 202.75 486.26 227.06"/><rect x="25.5" y="202.75" width="55.59" height="24.31"/></svg>