<svg id="Layer_1" data-name="Layer 1" xmlns="http://www.w3.org/2000/svg" xmlns:xlink="http://www.w3.org/1999/xlink" viewBox="0 0 512 512"><defs><style>.cls-1{fill:#994141;}.cls-1,.cls-14,.cls-2,.cls-8,.cls-9{stroke:#7c4947;}.cls-1,.cls-10,.cls-11,.cls-12,.cls-13,.cls-14,.cls-16,.cls-2,.cls-20,.cls-3,.cls-5,.cls-6,.cls-8,.cls-9{stroke-miterlimit:10;}.cls-1,.cls-10,.cls-11,.cls-12,.cls-13,.cls-14,.cls-2,.cls-3,.cls-8,.cls-9{stroke-width:3px;}.cls-2{fill:#aa4947;}.cls-10,.cls-12,.cls-16,.cls-3{stroke:#4d4d4d;}.cls-3{opacity:0.5;fill:url(#linear-gradient);}.cls-4{opacity:0.1;}.cls-5,.cls-6,.cls-8{fill:#b3b3b3;}.cls-13,.cls-5{stroke:#000;}.cls-5,.cls-6{stroke-width:2px;}.cls-15,.cls-16,.cls-5{opacity:0.2;}.cls-6{stroke:url(#linear-gradient-2);}.cls-13,.cls-7{opacity:0.3;}.cls-9{fill:#9c4947;}.cls-10{fill:url(#linear-gradient-3);}.cls-11,.cls-16,.cls-20{fill:none;}.cls-11{stroke:#874947;}.cls-12{fill:url(#linear-gradient-4);}.cls-13{fill:url(#linear-gradient-5);}.cls-14{fill:url(#linear-gradient-6);}.cls-16{stroke-linecap:round;stroke-width:11px;}.cls-17{fill:url(#radial-gradient);}.cls-18{fill:#4d4d4d;}.cls-19{fill:#7c4947;}.cls-20{stroke:#fff;opacity:0.55;}</style><linearGradient id="linear-gradient" x1="255.71" y1="81.96" x2="255.71" y2="237.12" gradientUnits="userSpaceOnUse"><stop offset="0"/><stop offset="0.37" stop-color="#030303"/><stop offset="0.63" stop-color="#0c0c0c"/><stop offset="0.85" stop-color="#1b1b1b"/><stop offset="1" stop-color="#2b2b2b"/></linearGradient><linearGradient id="linear-gradient-2" x1="108.1" y1="309.2" x2="130" y2="287.31" gradientUnits="userSpaceOnUse"><stop offset="0" stop-color="#e6e6e6"/><stop offset="0.3" stop-color="#e3e3e3"/><stop offset="0.51" stop-color="#dadada"/><stop offset="0.69" stop-color="#cbcbcb"/><stop offset="0.85" stop-color="#b5b5b5"/><stop offset="1" stop-color="#999"/><stop offset="1" stop-color="#999"/></linearGradient><linearGradient id="linear-gradient-3" x1="256.17" y1="269.73" x2="256.17" y2="413.31" xlink:href="#linear-gradient"/><linearGradient id="linear-gradient-4" x1="254.7" y1="91.35" x2="254.7" y2="222.26" xlink:href="#linear-gradient"/><linearGradient id="linear-gradient-5" x1="106.39" y1="342.42" x2="130.71" y2="366.74" gradientUnits="userSpaceOnUse"><stop offset="0" stop-color="#a65355"/><stop offset="1" stop-color="#ad5f63"/></linearGradient><linearGradient id="linear-gradient-6" x1="106.39" y1="340.29" x2="130.71" y2="364.62" xlink:href="#linear-gradient-5"/><radialGradient id="radial-gradient" cx="256.05" cy="71.59" r="2.17" gradientUnits="userSpaceOnUse"><stop offset="0" stop-color="#999"/><stop offset="1" stop-color="#2b2b2b"/></radialGradient></defs><title>ds</title><path class="cls-1" d="M87.54,252.66H423.87a5,5,0,0,1,5,5V417.35a33,33,0,0,1-33,33H115.54a33,33,0,0,1-33-33V257.66A5,5,0,0,1,87.54,252.66Z"/><path class="cls-2" d="M87.89,240.25H424.21a5,5,0,0,1,5,5V404.94a33,33,0,0,1-33,33H115.89a33,33,0,0,1-33-33V245.25A5,5,0,0,1,87.89,240.25Z"/><rect class="cls-2" x="83.13" y="238.12" width="346.08" height="22.46" rx="5" ry="5"/><rect class="cls-3" x="133.57" y="81.96" width="244.28" height="155.17" rx="4" ry="4"/><path class="cls-2" d="M393.9,61.65H118.69A35.56,35.56,0,0,0,83.13,97.21V230a3.57,3.57,0,0,0,3.56,3.57h27.73a2.56,2.56,0,0,1,2.56,2.63v22c0,1.44.59,2.41,2,2.41h31.18a2.56,2.56,0,0,1,2.56,2.56l.08,161.1a12.57,12.57,0,0,0,12.57,12.57H346.54a12.57,12.57,0,0,0,12.57-12.57L359,263.15a2.56,2.56,0,0,1,2.56-2.56h32.23a2.56,2.56,0,0,0,2.56-2.57V236.15a2.57,2.57,0,0,1,2.57-2.56H425.9a3.57,3.57,0,0,0,3.56-3.57V97.21A35.56,35.56,0,0,0,393.9,61.65Z"/><circle class="cls-4" cx="119.05" cy="298.25" r="23.77"/><circle class="cls-5" cx="119.05" cy="300.25" r="14.48"/><circle class="cls-6" cx="119.05" cy="298.25" r="14.48"/><circle class="cls-7" cx="373.72" cy="281.49" r="8.37"/><circle class="cls-7" cx="373.72" cy="375.58" r="6.47"/><circle class="cls-7" cx="373.72" cy="396.8" r="6.47"/><circle class="cls-7" cx="392.91" cy="300.95" r="10.11"/><circle class="cls-7" cx="392.91" cy="336.87" r="10.31"/><circle class="cls-7" cx="374.95" cy="318.91" r="10.03"/><circle class="cls-7" cx="410.86" cy="318.91" r="10.03"/><circle class="cls-8" cx="373.72" cy="278.92" r="7.19"/><circle class="cls-9" cx="373.72" cy="373.02" r="5.08"/><circle class="cls-9" cx="373.72" cy="394.23" r="5.08"/><circle class="cls-9" cx="392.91" cy="298.39" r="8.81"/><circle class="cls-9" cx="392.91" cy="334.3" r="8.81"/><circle class="cls-9" cx="374.95" cy="316.34" r="8.81"/><circle class="cls-9" cx="410.86" cy="316.34" r="8.81"/><rect class="cls-10" x="161.05" y="269.73" width="190.25" height="143.58" rx="4" ry="4"/><rect class="cls-11" x="138.83" y="84.82" width="231.74" height="143.96" rx="4" ry="4"/><rect class="cls-12" x="145.69" y="91.35" width="218.01" height="130.91" rx="4" ry="4"/><path class="cls-13" d="M135.43,348H125.1V337.7a2.18,2.18,0,0,0-2.17-2.17h-8.76A2.18,2.18,0,0,0,112,337.7V348H101.67a2.18,2.18,0,0,0-2.17,2.17V359a2.18,2.18,0,0,0,2.17,2.17H112v10.33a2.18,2.18,0,0,0,2.17,2.17h8.76a2.18,2.18,0,0,0,2.17-2.17V361.13h10.33A2.18,2.18,0,0,0,137.6,359V350.2A2.18,2.18,0,0,0,135.43,348Z"/><path class="cls-14" d="M135.43,345.91H125.1V335.58a2.17,2.17,0,0,0-2.17-2.17h-8.76a2.17,2.17,0,0,0-2.17,2.17v10.33H101.67a2.17,2.17,0,0,0-2.17,2.17v8.75a2.17,2.17,0,0,0,2.17,2.17H112v10.33a2.17,2.17,0,0,0,2.17,2.17h8.76a2.17,2.17,0,0,0,2.17-2.17V359h10.33a2.17,2.17,0,0,0,2.17-2.17v-8.75A2.17,2.17,0,0,0,135.43,345.91Z"/><circle class="cls-15" cx="403.88" cy="144.96" r="1.63"/><circle class="cls-15" cx="412.87" cy="144.96" r="1.63"/><circle class="cls-15" cx="394.65" cy="144.96" r="1.63"/><circle class="cls-15" cx="403.76" cy="135.85" r="1.63"/><circle class="cls-15" cx="403.76" cy="154.06" r="1.63"/><circle class="cls-15" cx="108.35" cy="144.96" r="1.63"/><circle class="cls-15" cx="117.34" cy="144.96" r="1.63"/><circle class="cls-15" cx="99.13" cy="144.96" r="1.63"/><circle class="cls-15" cx="108.23" cy="135.85" r="1.63"/><circle class="cls-15" cx="108.23" cy="154.06" r="1.63"/><line class="cls-16" x1="262.95" y1="424.25" x2="248.99" y2="424.25"/><circle class="cls-9" cx="173.55" cy="71.59" r="4.5"/><circle class="cls-9" cx="337.89" cy="71.59" r="4.5"/><circle class="cls-17" cx="256.05" cy="71.59" r="4.5"/><circle class="cls-18" cx="267.97" cy="71.59" r="3.18"/><path class="cls-19" d="M83.13,172.75h3.13a1,1,0,0,1,1,1v8.92a1,1,0,0,1-1,1H83.13a0,0,0,0,1,0,0V172.75a0,0,0,0,1,0,0Z"/><path class="cls-19" d="M425.33,172.75h3.13a1,1,0,0,1,1,1v8.92a1,1,0,0,1-1,1h-3.13a0,0,0,0,1,0,0V172.75A0,0,0,0,1,425.33,172.75Z" transform="translate(854.79 356.42) rotate(-180)"/><path class="cls-19" d="M364,433.69h3.13a1,1,0,0,1,1,1v.13a1,1,0,0,1-1,1H364a0,0,0,0,1,0,0v-2.13a0,0,0,0,1,0,0Z" transform="translate(-68.64 800.86) rotate(-90)"/><path class="cls-19" d="M368.18,433.69h3.13a1,1,0,0,1,1,1v.13a1,1,0,0,1-1,1h-3.13a0,0,0,0,1,0,0v-2.13a0,0,0,0,1,0,0Z" transform="translate(-64.51 805) rotate(-90)"/><path class="cls-19" d="M372.31,433.69h3.13a1,1,0,0,1,1,1v.13a1,1,0,0,1-1,1h-3.13a0,0,0,0,1,0,0v-2.13A0,0,0,0,1,372.31,433.69Z" transform="translate(-60.38 809.13) rotate(-90)"/><path class="cls-19" d="M364,439.73h3.13a1,1,0,0,1,1,1v.13a1,1,0,0,1-1,1H364a0,0,0,0,1,0,0v-2.13a0,0,0,0,1,0,0Z" transform="translate(806.91 74.68) rotate(90)"/><path class="cls-19" d="M368.18,439.73h3.13a1,1,0,0,1,1,1v.13a1,1,0,0,1-1,1h-3.13a0,0,0,0,1,0,0v-2.13A0,0,0,0,1,368.18,439.73Z" transform="translate(811.04 70.55) rotate(90)"/><path class="cls-19" d="M372.31,439.73h3.13a1,1,0,0,1,1,1v.13a1,1,0,0,1-1,1h-3.13a0,0,0,0,1,0,0v-2.13A0,0,0,0,1,372.31,439.73Z" transform="translate(815.17 66.42) rotate(90)"/><line class="cls-20" x1="118.55" y1="343.84" x2="118.55" y2="336.84"/><line class="cls-20" x1="118.55" y1="368.3" x2="118.55" y2="361.3"/><line class="cls-20" x1="109.82" y1="352.57" x2="102.82" y2="352.57"/><line class="cls-20" x1="134.28" y1="352.57" x2="127.28" y2="352.57"/><line class="cls-9" x1="99.5" y1="238.12" x2="410.86" y2="238.12"/><line class="cls-9" x1="99.01" y1="260.59" x2="410.38" y2="260.59"/></svg>