<svg id="Layer_1" data-name="Layer 1" xmlns="http://www.w3.org/2000/svg" xmlns:xlink="http://www.w3.org/1999/xlink" viewBox="0 0 512 512"><defs><style>.cls-1{fill:#bebdb9;}.cls-17,.cls-18,.cls-2{fill:#cdcbc6;}.cls-13,.cls-17,.cls-18,.cls-2{stroke:#bebdb9;}.cls-10,.cls-11,.cls-13,.cls-15,.cls-16,.cls-17,.cls-18,.cls-2,.cls-3,.cls-5,.cls-6,.cls-7,.cls-8{stroke-miterlimit:10;}.cls-10,.cls-11,.cls-13,.cls-17,.cls-2,.cls-5,.cls-6,.cls-7,.cls-8{stroke-width:3px;}.cls-13,.cls-15,.cls-16,.cls-3{fill:none;}.cls-17,.cls-18,.cls-3{stroke-linecap:round;}.cls-3{stroke-width:52px;stroke:url(#linear-gradient);}.cls-4{fill:#4d4d4d;}.cls-4,.cls-9{opacity:0.3;}.cls-5{fill:#6b6b77;}.cls-10,.cls-11,.cls-5,.cls-8{stroke:#4d4d4d;}.cls-6,.cls-7{stroke:#9b1e5a;}.cls-6{fill:url(#radial-gradient);}.cls-7{fill:url(#radial-gradient-2);}.cls-8{fill:#0f1225;}.cls-10,.cls-9{fill:#929195;}.cls-11{fill:url(#linear-gradient-2);}.cls-12{fill:#27ff31;}.cls-14{fill:url(#radial-gradient-3);}.cls-15{stroke:#813a65;}.cls-16{stroke:#050762;}.cls-18{stroke-width:8px;}</style><linearGradient id="linear-gradient" x1="1555.57" y1="-2700.44" x2="1555.57" y2="-2645.34" gradientTransform="matrix(-0.79, 0.37, -0.42, -0.91, 442.69, -2661.39)" gradientUnits="userSpaceOnUse"><stop offset="0" stop-color="#bebdb9"/><stop offset="1" stop-color="#e6e6e6"/></linearGradient><radialGradient id="radial-gradient" cx="313.17" cy="330.67" r="35.17" gradientUnits="userSpaceOnUse"><stop offset="0" stop-color="#9b1e5a"/><stop offset="0.39" stop-color="#9c205b"/><stop offset="0.53" stop-color="#9e2760"/><stop offset="0.63" stop-color="#a33268"/><stop offset="0.71" stop-color="#a94374"/><stop offset="0.78" stop-color="#b15984"/><stop offset="0.85" stop-color="#bb7597"/><stop offset="0.9" stop-color="#c895ad"/><stop offset="0.95" stop-color="#d5b9c7"/><stop offset="1" stop-color="#e5e2e3"/><stop offset="1" stop-color="#e6e6e6"/></radialGradient><radialGradient id="radial-gradient-2" cx="358.67" cy="312.17" r="35.17" xlink:href="#radial-gradient"/><linearGradient id="linear-gradient-2" x1="256.5" y1="89.17" x2="256.5" y2="222.17" gradientUnits="userSpaceOnUse"><stop offset="0"/><stop offset="0.37" stop-color="#030303"/><stop offset="0.63" stop-color="#0c0c0c"/><stop offset="0.85" stop-color="#1b1b1b"/><stop offset="1" stop-color="#2b2b2b"/></linearGradient><radialGradient id="radial-gradient-3" cx="174.5" cy="345.17" r="15.5" gradientTransform="translate(0 30.76) scale(1 0.91)" gradientUnits="userSpaceOnUse"><stop offset="0"/><stop offset="0.47" stop-color="#020202"/><stop offset="0.64" stop-color="#090909"/><stop offset="0.77" stop-color="#141414"/><stop offset="0.86" stop-color="#252525"/><stop offset="0.95" stop-color="#3b3b3b"/><stop offset="1" stop-color="#4d4d4d"/></radialGradient></defs><title>gb</title><ellipse class="cls-1" cx="167" cy="31" rx="9.5" ry="3.17"/><path class="cls-2" d="M128.61,32.17H383.39a9.11,9.11,0,0,1,9.11,9.11V425.49a58.68,58.68,0,0,1-58.68,58.68H128.61a9.11,9.11,0,0,1-9.11-9.11V41.28A9.11,9.11,0,0,1,128.61,32.17Z"/><line class="cls-3" x1="312.5" y1="346.17" x2="358.5" y2="328.17"/><circle class="cls-4" cx="313.5" cy="349.17" r="17"/><circle class="cls-4" cx="359.5" cy="331.17" r="17"/><path class="cls-5" d="M152.5,68.17h208a12,12,0,0,1,12,12V208.48a36.69,36.69,0,0,1-36.69,36.69H152.5a12,12,0,0,1-12-12v-153A12,12,0,0,1,152.5,68.17Z"/><circle class="cls-6" cx="312.5" cy="346.17" r="17"/><circle class="cls-7" cx="358" cy="327.67" r="17"/><path class="cls-4" d="M202.85,334.17H185.5V316.81a3.66,3.66,0,0,0-3.65-3.64h-14.7a3.66,3.66,0,0,0-3.65,3.64v17.36H146.15c-2,0-5.15,1.55-5.15,3.56v14.71c0,2,2.64,3.64,4.65,3.64l16.35.09v17.35a3.66,3.66,0,0,0,3.65,3.65h17.7a3.66,3.66,0,0,0,3.65-3.65V356.17h16.35c2,0,4.65-1.64,4.65-3.65V337.81C208,335.81,204.86,334.17,202.85,334.17Z"/><path class="cls-8" d="M202.85,330.17H185.5V312.81a3.66,3.66,0,0,0-3.65-3.64h-14.7a3.66,3.66,0,0,0-3.65,3.64v17.36H146.15a3.66,3.66,0,0,0-3.65,3.64v14.71a3.66,3.66,0,0,0,3.65,3.65H163.5v17.35a3.66,3.66,0,0,0,3.65,3.65h14.7a3.66,3.66,0,0,0,3.65-3.65V352.17h17.35a3.66,3.66,0,0,0,3.65-3.65V333.81A3.66,3.66,0,0,0,202.85,330.17Z"/><rect class="cls-9" x="247.8" y="404.2" width="35.62" height="10.04" rx="4" ry="4" transform="translate(-154.53 161.25) rotate(-26.46)"/><rect class="cls-9" x="200.8" y="404.2" width="35.62" height="10.04" rx="4" ry="4" transform="translate(-159.46 140.3) rotate(-26.46)"/><rect class="cls-10" x="248.33" y="402.44" width="34.28" height="8" rx="4" ry="4" transform="translate(-153.3 160.89) rotate(-26.46)"/><rect class="cls-11" x="183.5" y="89.17" width="146" height="133"/><rect class="cls-1" x="280.16" y="453.76" width="44.2" height="5.06" rx="2" ry="2" transform="translate(546.29 -33.62) rotate(60)"/><rect class="cls-1" x="294.16" y="445.76" width="44.2" height="5.06" rx="2" ry="2" transform="matrix(0.5, 0.87, -0.87, 0.5, 546.36, -49.74)"/><rect class="cls-1" x="307.16" y="437.76" width="44.2" height="5.06" rx="2" ry="2" transform="translate(545.93 -65) rotate(60)"/><rect class="cls-1" x="321.16" y="429.76" width="44.2" height="5.06" rx="2" ry="2" transform="translate(546 -81.13) rotate(60)"/><rect class="cls-1" x="334.16" y="422.76" width="44.2" height="5.06" rx="2" ry="2" transform="matrix(0.5, 0.87, -0.87, 0.5, 546.44, -95.88)"/><rect class="cls-10" x="201.33" y="402.44" width="34.28" height="8" rx="4" ry="4" transform="translate(-158.23 139.94) rotate(-26.46)"/><rect class="cls-1" x="348.16" y="414.76" width="44.2" height="5.06" rx="2" ry="2" transform="translate(546.51 -112.01) rotate(60)"/><circle class="cls-12" cx="158.5" cy="135.17" r="4"/><rect class="cls-1" x="152.5" y="37.17" width="51" height="10" rx="5" ry="5"/><line class="cls-13" x1="392.5" y1="53.17" x2="119.5" y2="53.17"/><line class="cls-13" x1="372" y1="31.67" x2="372" y2="54.17"/><line class="cls-13" x1="137" y1="31.67" x2="137" y2="54.17"/><line class="cls-13" x1="159" y1="30.67" x2="159" y2="41.67"/><line class="cls-13" x1="164" y1="31.17" x2="164" y2="42.17"/><line class="cls-13" x1="169" y1="31.17" x2="169" y2="42.17"/><circle class="cls-14" cx="174.5" cy="341.17" r="9"/><line class="cls-13" x1="240" y1="484.17" x2="240" y2="471.17"/><line class="cls-13" x1="248" y1="484.17" x2="248" y2="471.17"/><line class="cls-13" x1="256" y1="484.17" x2="256" y2="471.17"/><line class="cls-15" x1="219.5" y1="74.17" x2="151.5" y2="74.17"/><line class="cls-16" x1="219.5" y1="78.67" x2="151.5" y2="78.67"/><line class="cls-15" x1="360.5" y1="74.17" x2="331.5" y2="74.17"/><line class="cls-16" x1="360.5" y1="78.67" x2="331.5" y2="78.67"/><line class="cls-17" x1="186" y1="382.67" x2="162.5" y2="382.67"/><line class="cls-18" x1="261" y1="471.67" x2="236" y2="471.67"/></svg>