<svg id="Layer_1" data-name="Layer 1" xmlns="http://www.w3.org/2000/svg" xmlns:xlink="http://www.w3.org/1999/xlink" viewBox="0 0 512 512"><defs><style>.cls-1{fill:#dfdee0;stroke:#b3b3b3;}.cls-1,.cls-10,.cls-11,.cls-12,.cls-13,.cls-14,.cls-2,.cls-3,.cls-4,.cls-5,.cls-8,.cls-9{stroke-miterlimit:10;}.cls-1,.cls-10,.cls-12,.cls-14,.cls-2,.cls-3,.cls-4,.cls-5,.cls-8,.cls-9{stroke-width:3px;}.cls-2{fill:#614d93;stroke:#8372ba;}.cls-3,.cls-4{stroke:#4d4d4d;}.cls-4{fill:url(#linear-gradient);}.cls-12,.cls-14,.cls-5,.cls-8,.cls-9{stroke:#ccc7dc;}.cls-5{fill:url(#linear-gradient-2);}.cls-6{fill:#333;opacity:0.1;}.cls-7{fill:#4d4d4d;}.cls-10,.cls-7{opacity:0.5;}.cls-8{fill:url(#linear-gradient-3);}.cls-9{fill:url(#linear-gradient-4);}.cls-10{fill:none;stroke:#000;}.cls-10,.cls-11,.cls-13{stroke-linecap:round;}.cls-11,.cls-13{stroke-width:16px;opacity:0.3;}.cls-11{fill:url(#linear-gradient-5);stroke:url(#linear-gradient-6);}.cls-12{fill:url(#linear-gradient-7);}.cls-13{fill:url(#linear-gradient-8);stroke:url(#linear-gradient-9);}.cls-14{fill:url(#linear-gradient-10);}</style><linearGradient id="linear-gradient" x1="252.72" y1="177.3" x2="252.72" y2="307.2" gradientUnits="userSpaceOnUse"><stop offset="0"/><stop offset="0.37" stop-color="#030303"/><stop offset="0.63" stop-color="#0c0c0c"/><stop offset="0.85" stop-color="#1b1b1b"/><stop offset="1" stop-color="#2b2b2b"/></linearGradient><linearGradient id="linear-gradient-2" x1="86.08" y1="255.9" x2="86.08" y2="202.61" gradientUnits="userSpaceOnUse"><stop offset="0" stop-color="#ccc7dc"/><stop offset="1" stop-color="#f2f2f2"/></linearGradient><linearGradient id="linear-gradient-3" x1="395.37" y1="256" x2="395.37" y2="227.2" xlink:href="#linear-gradient-2"/><linearGradient id="linear-gradient-4" x1="437.64" y1="242.25" x2="437.64" y2="213.46" xlink:href="#linear-gradient-2"/><linearGradient id="linear-gradient-5" x1="90.66" y1="277.71" x2="103.28" y2="299.57" gradientUnits="userSpaceOnUse"><stop offset="0"/><stop offset="0.26" stop-color="#020202"/><stop offset="0.35" stop-color="#090909"/><stop offset="0.42" stop-color="#141414"/><stop offset="0.47" stop-color="#252525"/><stop offset="0.52" stop-color="#3b3b3b"/><stop offset="0.55" stop-color="#4d4d4d"/></linearGradient><linearGradient id="linear-gradient-6" x1="94.9" y1="296.37" x2="99.05" y2="280.9" gradientUnits="userSpaceOnUse"><stop offset="0" stop-color="#231f20"/><stop offset="1" stop-color="#4d4d4d"/></linearGradient><linearGradient id="linear-gradient-7" x1="108.97" y1="293.43" x2="119.47" y2="293.43" xlink:href="#linear-gradient-2"/><linearGradient id="linear-gradient-8" x1="79.72" y1="314.37" x2="114.22" y2="314.37" xlink:href="#linear-gradient-5"/><linearGradient id="linear-gradient-9" x1="94.9" y1="322.1" x2="99.05" y2="306.64" xlink:href="#linear-gradient-6"/><linearGradient id="linear-gradient-10" x1="108.97" y1="318.81" x2="119.47" y2="318.81" xlink:href="#linear-gradient-2"/></defs><title>gba</title><path class="cls-1" d="M156.22,126.18,60.71,139c-13,1.88-24.41,13.83-24.38,30.11,2.46,0,22.53-.49,24.73-.81l106.78-17Z"/><path class="cls-1" d="M136.42,142.25c-15.54,0-11.17,7.25-41.17,21-30.31,13.9-61,13.5-61,13.5-7.56,38.48-13,108.84-13.06,145.5,0,11.34,13.23,21.49,21.5,23,18.06,3.33,44.86-21.17,58.42-16.51Z"/><path class="cls-1" d="M355.78,126.18,451.29,139c13,1.88,24.41,13.83,24.38,30.11-2.46,0-22.53-.49-24.73-.81l-106.78-17Z"/><path class="cls-1" d="M375.58,142.25c15.54,0,11.17,7.25,41.17,21,30.31,13.9,61,13.5,61,13.5,7.56,38.48,13.05,108.84,13.06,145.5,0,11.34-13.23,21.49-21.5,23-18.06,3.33-44.86-21.17-58.42-16.51Z"/><path class="cls-2" d="M144.42,125.25c-15.54,0-11.17,7.25-41.17,21C72.94,160.15,44.5,150,41.81,163.71c-7.56,38.47-15.93,111.21-14.65,147.54.2,5.81.37,14.45,7.26,21.34,13.5,13.5,55.76,23.33,69.33,28,31.14,10.7,81.67,26.16,140.67,26.16H267c59,0,109.52-15.46,140.67-26.16,13.56-4.67,55.83-14.5,69.33-28,6.89-6.89,7.05-15.53,7.26-21.34,1.28-36.33-7.09-109.07-14.65-147.54C467,150,438.51,160.15,408.2,146.25c-30-13.75-25.63-21-41.17-21Z"/><path class="cls-3" d="M156.72,158.25a649,649,0,0,1,96-7c49,0,98,7,98,7a12,12,0,0,1,12,12s5,64.39,5.89,85.89c.73,17.14,1.11,68.61,1.11,68.61,0,6.6-4.75,12.75-10.75,16,0,0-28.25,18.57-109.25,18C178.72,358.25,145,339,145,339c-6-3.5-11.25-7.65-11.25-14.25,0,0,1.77-52.34,3-69.75,1.46-21.23,8-84.75,8-84.75A12,12,0,0,1,156.72,158.25Z"/><rect class="cls-4" x="157.22" y="177.3" width="191" height="129.9"/><path class="cls-5" d="M109.69,220.09H95.24V205.64a3,3,0,0,0-3-3H80a3,3,0,0,0-3,3v14.45H62.47a3.05,3.05,0,0,0-3,3v12.25a3,3,0,0,0,3,3H76.92v14.45a3,3,0,0,0,3,3H92.2a3.05,3.05,0,0,0,3-3V238.41h14.45a3,3,0,0,0,3-3V223.13A3,3,0,0,0,109.69,220.09Z"/><circle class="cls-6" cx="86.08" cy="229.25" r="4.79"/><polygon class="cls-6" points="86.08 208.57 82.33 215.06 89.82 215.06 86.08 208.57"/><circle class="cls-7" cx="395.37" cy="246.38" r="16.04"/><circle class="cls-7" cx="437.64" cy="231.98" r="16.33"/><polygon class="cls-6" points="86.08 250.51 82.33 244.02 89.82 244.02 86.08 250.51"/><polygon class="cls-6" points="65.11 229.54 71.59 233.28 71.59 225.8 65.11 229.54"/><polygon class="cls-6" points="107.05 229.54 100.56 233.28 100.56 225.8 107.05 229.54"/><circle class="cls-8" cx="395.37" cy="241.6" r="14.4"/><circle class="cls-9" cx="437.64" cy="227.86" r="14.4"/><line class="cls-10" x1="380.98" y1="292.25" x2="430.48" y2="280.75"/><line class="cls-10" x1="380.98" y1="302.49" x2="430.48" y2="290.99"/><line class="cls-10" x1="380.98" y1="312.73" x2="430.48" y2="301.23"/><line class="cls-10" x1="380.98" y1="322.96" x2="430.48" y2="311.46"/><line class="cls-11" x1="114.22" y1="293.25" x2="79.72" y2="284.02"/><line class="cls-10" x1="380.98" y1="333.2" x2="430.48" y2="321.7"/><circle class="cls-12" cx="114.22" cy="293.43" r="5.25"/><line class="cls-13" x1="114.22" y1="318.99" x2="79.72" y2="309.75"/><circle class="cls-14" cx="114.22" cy="318.81" r="5.25"/></svg>