<svg id="Layer_1" data-name="Layer 1" xmlns="http://www.w3.org/2000/svg" xmlns:xlink="http://www.w3.org/1999/xlink" viewBox="0 0 512 512"><defs><style>.cls-1{fill:#efefef;}.cls-1,.cls-2,.cls-3,.cls-4{stroke:#8372ba;}.cls-1,.cls-14,.cls-15,.cls-16,.cls-2,.cls-3,.cls-4,.cls-5,.cls-6,.cls-7,.cls-8{stroke-miterlimit:10;}.cls-1,.cls-14,.cls-15,.cls-2,.cls-3,.cls-4,.cls-5,.cls-6,.cls-7,.cls-8{stroke-width:3px;}.cls-3{fill:#614d93;}.cls-15,.cls-16,.cls-4{fill:none;}.cls-5,.cls-6,.cls-7,.cls-8{fill:#4d4d4d;}.cls-5{stroke:url(#linear-gradient);}.cls-6{stroke:url(#linear-gradient-2);}.cls-7{stroke:url(#linear-gradient-3);}.cls-8{stroke:url(#linear-gradient-4);}.cls-9{fill:#6b6b6b;}.cls-10{opacity:0.3;}.cls-11{opacity:0.5;}.cls-12{fill:#666;}.cls-13,.cls-14{fill:#d3d3d3;}.cls-14,.cls-15,.cls-16{stroke:#666;}.cls-16{stroke-width:7px;opacity:0.59;}</style><linearGradient id="linear-gradient" x1="146.69" y1="211.13" x2="146.69" y2="252.18" gradientUnits="userSpaceOnUse"><stop offset="0" stop-color="#333"/><stop offset="0.14" stop-color="#3c3c3c"/><stop offset="0.38" stop-color="#565656"/><stop offset="0.68" stop-color="#7f7f7f"/><stop offset="1" stop-color="#b3b3b3"/></linearGradient><linearGradient id="linear-gradient-2" x1="219.47" y1="211.13" x2="219.47" y2="252.18" xlink:href="#linear-gradient"/><linearGradient id="linear-gradient-3" x1="292.99" y1="211.13" x2="292.99" y2="252.18" xlink:href="#linear-gradient"/><linearGradient id="linear-gradient-4" x1="365.31" y1="211.13" x2="365.31" y2="252.18" xlink:href="#linear-gradient"/></defs><title>gc</title><ellipse class="cls-1" cx="256" cy="122.75" rx="148.3" ry="12.1"/><rect class="cls-2" x="374.32" y="358.55" width="20.23" height="42.79" rx="3.84" ry="3.84"/><rect class="cls-2" x="119.03" y="358.55" width="19.79" height="42.79" rx="3.8" ry="3.8"/><path class="cls-3" d="M439.6,116.56H72.4a8.82,8.82,0,0,0-8.82,8.82V387.51a8.82,8.82,0,0,0,8.82,8.82s19.55.25,46.37.56V386.44a2.66,2.66,0,0,1,2.66-2.65h15a2.65,2.65,0,0,1,2.65,2.65v10.69c41.87.47,92.41,1,116.87,1,24.75,0,76.19-.52,118.34-1V386.44a2.66,2.66,0,0,1,2.66-2.65h15.05a2.66,2.66,0,0,1,2.66,2.65v10.44l44.89-.55a8.82,8.82,0,0,0,8.82-8.82V125.38A8.82,8.82,0,0,0,439.6,116.56Z"/><rect class="cls-1" x="405.03" y="353.45" width="25.36" height="23.72" rx="3.2" ry="3.2"/><line class="cls-4" x1="448.42" y1="331.7" x2="63.58" y2="331.7"/><path class="cls-1" d="M112.13,181.19H399.87a4.43,4.43,0,0,1,4.43,4.42s1.77,53.12,1.77,70.83-1.77,70.83-1.77,70.83a4.43,4.43,0,0,1-4.43,4.43H112.13a4.43,4.43,0,0,1-4.43-4.43s-1.76-52.45-1.77-69.94c0-17.94,1.77-71.72,1.77-71.72A4.43,4.43,0,0,1,112.13,181.19Z"/><circle class="cls-5" cx="146.69" cy="231.65" r="19.02"/><circle class="cls-6" cx="219.47" cy="231.65" r="19.02"/><circle class="cls-7" cx="292.99" cy="231.65" r="19.02"/><circle class="cls-8" cx="365.31" cy="231.65" r="19.02"/><path class="cls-9" d="M135.54,223.17a13.67,13.67,0,0,0-2.68,8.14,13.83,13.83,0,1,0,25-8.14Z"/><path class="cls-9" d="M208.32,223.17a13.82,13.82,0,1,0,22.3,0Z"/><path class="cls-9" d="M281.84,223.17a13.67,13.67,0,0,0-2.68,8.14,13.83,13.83,0,1,0,25-8.14Z"/><path class="cls-9" d="M354.16,223.17a13.83,13.83,0,1,0,22.3,0Z"/><circle class="cls-10" cx="140.56" cy="231.65" r="2.18"/><circle class="cls-10" cx="146.69" cy="231.65" r="2.18"/><g class="cls-11"><circle class="cls-12" cx="357.83" cy="199.76" r="2.05"/><circle class="cls-12" cx="362.82" cy="199.76" r="2.05"/><circle class="cls-12" cx="367.81" cy="199.76" r="2.05"/><circle class="cls-12" cx="372.79" cy="199.76" r="2.05"/></g><g class="cls-11"><circle class="cls-12" cx="288" cy="199.76" r="2.05"/><circle class="cls-12" cx="292.99" cy="199.76" r="2.05"/><circle class="cls-12" cx="297.97" cy="199.76" r="2.05"/></g><g class="cls-11"><circle class="cls-12" cx="216.98" cy="199.76" r="2.05"/><circle class="cls-12" cx="221.96" cy="199.76" r="2.05"/></g><g class="cls-11"><circle class="cls-12" cx="146.69" cy="199.76" r="2.05"/></g><circle class="cls-10" cx="152.82" cy="231.65" r="2.18"/><circle class="cls-10" cx="213.34" cy="231.65" r="2.18"/><circle class="cls-10" cx="219.47" cy="231.65" r="2.18"/><circle class="cls-10" cx="225.6" cy="231.65" r="2.18"/><circle class="cls-10" cx="286.86" cy="231.65" r="2.18"/><circle class="cls-10" cx="292.99" cy="231.65" r="2.18"/><circle class="cls-10" cx="299.12" cy="231.65" r="2.18"/><circle class="cls-10" cx="359.18" cy="231.65" r="2.18"/><circle class="cls-10" cx="365.31" cy="231.65" r="2.18"/><circle class="cls-10" cx="371.44" cy="231.65" r="2.18"/><path class="cls-13" d="M135.89,291.66v11.51A9,9,0,0,0,145,312h76.5a9,9,0,0,0,9.12-8.86V291.66Z"/><path class="cls-13" d="M281.53,291.66v11.51a9,9,0,0,0,9.1,8.86H367a9,9,0,0,0,9.1-8.86V291.66Z"/><path class="cls-14" d="M137.28,286.54v11.51a8.89,8.89,0,0,0,8.86,8.86h74.3a8.88,8.88,0,0,0,8.85-8.86V286.54Z"/><path class="cls-14" d="M282.78,286.54v11.51a8.88,8.88,0,0,0,8.85,8.86h74.3a8.88,8.88,0,0,0,8.85-8.86V286.54Z"/><line class="cls-15" x1="146.14" y1="286.54" x2="146.14" y2="306.91"/><line class="cls-15" x1="220.44" y1="286.54" x2="220.44" y2="306.91"/><line class="cls-15" x1="291.63" y1="286.54" x2="291.63" y2="306.91"/><line class="cls-15" x1="365.93" y1="286.54" x2="365.93" y2="306.91"/><line class="cls-16" x1="227.89" y1="289.2" x2="138.58" y2="289.2"/><line class="cls-16" x1="373.6" y1="289.2" x2="283.93" y2="289.2"/></svg>