<svg id="Layer_1" data-name="Layer 1" xmlns="http://www.w3.org/2000/svg" xmlns:xlink="http://www.w3.org/1999/xlink" viewBox="0 0 512 512"><defs><style>.cls-1,.cls-29,.cls-4{stroke:gray;}.cls-1,.cls-11,.cls-2,.cls-28,.cls-29,.cls-3,.cls-4,.cls-5,.cls-6,.cls-7,.cls-8{stroke-miterlimit:10;}.cls-1,.cls-2,.cls-28,.cls-29,.cls-3,.cls-4,.cls-5,.cls-6,.cls-7,.cls-8{stroke-width:3px;}.cls-1{fill:url(#linear-gradient);}.cls-2{fill:#858384;}.cls-2,.cls-7,.cls-8{stroke:#4d4d4d;}.cls-3{fill:#b3b3b3;opacity:0.43;}.cls-3,.cls-5{stroke:#b3b3b3;}.cls-4{fill:#fefdfa;}.cls-28,.cls-29,.cls-5,.cls-8{fill:none;}.cls-6{fill:#4d4d4d;}.cls-11,.cls-28,.cls-6{stroke:#000;}.cls-7{fill:#8c8b89;}.cls-9{fill:url(#linear-gradient-2);}.cls-10{fill:url(#linear-gradient-3);}.cls-11{fill:#353535;stroke-width:2px;opacity:0.67;}.cls-12{fill:url(#radial-gradient);}.cls-13{fill:url(#radial-gradient-2);}.cls-14{fill:url(#radial-gradient-3);}.cls-15{fill:url(#radial-gradient-4);}.cls-16{fill:url(#radial-gradient-5);}.cls-17{fill:url(#radial-gradient-6);}.cls-18{fill:url(#radial-gradient-7);}.cls-19{fill:url(#radial-gradient-8);}.cls-20{fill:url(#radial-gradient-9);}.cls-21{fill:url(#radial-gradient-10);}.cls-22{fill:url(#radial-gradient-11);}.cls-23{fill:url(#radial-gradient-12);}.cls-24{fill:url(#radial-gradient-13);}.cls-25{fill:url(#radial-gradient-14);}.cls-26{fill:url(#radial-gradient-15);}.cls-27{fill:url(#radial-gradient-16);}</style><linearGradient id="linear-gradient" x1="256" y1="254.28" x2="256" y2="179.37" gradientUnits="userSpaceOnUse"><stop offset="0.89" stop-color="#e6e6e6"/><stop offset="1" stop-color="#f2f2f2"/></linearGradient><linearGradient id="linear-gradient-2" x1="119.02" y1="320.26" x2="119.02" y2="297.22" gradientUnits="userSpaceOnUse"><stop offset="0" stop-color="#4d4d4d"/><stop offset="1" stop-color="#999"/></linearGradient><linearGradient id="linear-gradient-3" x1="169.97" y1="320.6" x2="169.97" y2="297.22" xlink:href="#linear-gradient-2"/><radialGradient id="radial-gradient" cx="371.08" cy="281.8" r="3.53" gradientUnits="userSpaceOnUse"><stop offset="0.05" stop-color="#999"/><stop offset="0.26"/></radialGradient><radialGradient id="radial-gradient-2" cx="371.08" cy="289.94" r="3.53" xlink:href="#radial-gradient"/><radialGradient id="radial-gradient-3" cx="371.08" cy="298.08" r="3.53" xlink:href="#radial-gradient"/><radialGradient id="radial-gradient-4" cx="371.08" cy="306.22" r="3.53" xlink:href="#radial-gradient"/><radialGradient id="radial-gradient-5" cx="379.22" cy="281.8" r="3.53" xlink:href="#radial-gradient"/><radialGradient id="radial-gradient-6" cx="379.22" cy="289.94" r="3.53" xlink:href="#radial-gradient"/><radialGradient id="radial-gradient-7" cx="379.22" cy="298.08" r="3.53" xlink:href="#radial-gradient"/><radialGradient id="radial-gradient-8" cx="379.22" cy="306.22" r="3.53" xlink:href="#radial-gradient"/><radialGradient id="radial-gradient-9" cx="404.91" cy="281.8" r="3.53" xlink:href="#radial-gradient"/><radialGradient id="radial-gradient-10" cx="404.91" cy="289.94" r="3.53" xlink:href="#radial-gradient"/><radialGradient id="radial-gradient-11" cx="404.91" cy="298.08" r="3.53" xlink:href="#radial-gradient"/><radialGradient id="radial-gradient-12" cx="404.91" cy="306.22" r="3.53" xlink:href="#radial-gradient"/><radialGradient id="radial-gradient-13" cx="413.06" cy="281.8" r="3.53" xlink:href="#radial-gradient"/><radialGradient id="radial-gradient-14" cx="413.06" cy="289.94" r="3.53" xlink:href="#radial-gradient"/><radialGradient id="radial-gradient-15" cx="413.06" cy="298.08" r="3.53" xlink:href="#radial-gradient"/><radialGradient id="radial-gradient-16" cx="413.06" cy="306.22" r="3.53" xlink:href="#radial-gradient"/></defs><title>nes</title><path class="cls-1" d="M23.67,254.28l5-68.69a6.71,6.71,0,0,1,6.69-6.22H479a4.19,4.19,0,0,1,4.17,3.88l5.15,71"/><polygon class="cls-2" points="45.39 332.63 466.61 332.63 488.32 272.74 488.32 255.55 23.68 255.55 23.68 271.29 45.39 332.63"/><path class="cls-3" d="M342.67,185.39v52.47a3.26,3.26,0,0,1-3.26,3.26H80.31a3.26,3.26,0,0,1-3.26-3.26V185.34"/><path class="cls-4" d="M342.67,179.42v54a3.32,3.32,0,0,1-3.26,3.36H80.31a3.32,3.32,0,0,1-3.26-3.36v-54"/><path class="cls-5" d="M184.25,232.72h51a1.22,1.22,0,0,1,1.22,1.22h0a5.91,5.91,0,0,1-.13,1.22h-53.2a5.91,5.91,0,0,1-.13-1.22h0A1.22,1.22,0,0,1,184.25,232.72Z"/><polyline class="cls-6" points="429.38 181 429.38 332.63 353.38 332.63 353.39 181"/><rect class="cls-7" x="65.11" y="255.55" width="145.47" height="68.03"/><rect class="cls-8" x="82.3" y="289.88" width="9.23" height="9.23"/><rect class="cls-9" x="99.93" y="286.21" width="38.18" height="21.52" rx="2.65" ry="2.65"/><rect class="cls-10" x="150.84" y="286.21" width="38.26" height="21.52" rx="2.63" ry="2.63"/><rect class="cls-8" x="101.57" y="286.21" width="34.92" height="17.25" rx="1.09" ry="1.09"/><rect class="cls-8" x="152.5" y="286.21" width="34.92" height="17.25" rx="1.09" ry="1.09"/><rect class="cls-11" x="363.07" y="276.14" width="24.15" height="35.74" rx="5.8" ry="5.8"/><circle class="cls-12" cx="371.08" cy="281.8" r="3.53"/><circle class="cls-13" cx="371.08" cy="289.94" r="3.53"/><circle class="cls-14" cx="371.08" cy="298.08" r="3.53"/><circle class="cls-15" cx="371.08" cy="306.22" r="3.53"/><circle class="cls-16" cx="379.22" cy="281.8" r="3.53"/><circle class="cls-17" cx="379.22" cy="289.94" r="3.53"/><circle class="cls-18" cx="379.22" cy="298.08" r="3.53"/><circle class="cls-19" cx="379.22" cy="306.22" r="3.53"/><rect class="cls-11" x="396.91" y="276.14" width="24.15" height="35.74" rx="5.8" ry="5.8"/><circle class="cls-20" cx="404.91" cy="281.8" r="3.53"/><circle class="cls-21" cx="404.91" cy="289.94" r="3.53"/><circle class="cls-22" cx="404.91" cy="298.08" r="3.53"/><circle class="cls-23" cx="404.91" cy="306.22" r="3.53"/><circle class="cls-24" cx="413.06" cy="281.8" r="3.53"/><circle class="cls-25" cx="413.06" cy="289.94" r="3.53"/><circle class="cls-26" cx="413.06" cy="298.08" r="3.53"/><circle class="cls-27" cx="413.06" cy="306.22" r="3.53"/><line class="cls-28" x1="429.38" y1="255.55" x2="353.39" y2="255.55"/><rect class="cls-11" x="353.39" y="204.26" width="75.99" height="33.91"/><line class="cls-29" x1="441.64" y1="179.37" x2="56.79" y2="179.37"/></svg>