<svg id="Layer_1" data-name="Layer 1" xmlns="http://www.w3.org/2000/svg" xmlns:xlink="http://www.w3.org/1999/xlink" viewBox="0 0 512 512"><defs><style>.cls-1,.cls-3{fill:#333;}.cls-2{fill:gray;}.cls-3{opacity:0.6;}.cls-4,.cls-7{fill:none;}.cls-10,.cls-11,.cls-12,.cls-13,.cls-4,.cls-5,.cls-7,.cls-8,.cls-9{stroke:#333;stroke-miterlimit:10;stroke-width:3px;}.cls-4{stroke-linecap:round;}.cls-5{fill:#b3b4b7;}.cls-10,.cls-6{fill:#4d4d4d;}.cls-6{opacity:0.7;}.cls-8{fill:#afb7c2;}.cls-9{fill:url(#linear-gradient);}.cls-11{fill:#b3b3b3;}.cls-13{fill:url(#linear-gradient-2);}.cls-14{fill:#39b54a;}</style><linearGradient id="linear-gradient" x1="203.25" y1="255.29" x2="203.25" y2="243.13" gradientUnits="userSpaceOnUse"><stop offset="0.6" stop-color="#999"/><stop offset="0.6" stop-color="#4d4d4d"/></linearGradient><linearGradient id="linear-gradient-2" x1="309.9" y1="255.29" x2="309.9" y2="243.13" xlink:href="#linear-gradient"/></defs><title>ps1</title><rect class="cls-1" x="54.7" y="288.32" width="84.34" height="18.17" rx="4.45" ry="4.45"/><path class="cls-1" d="M134.59,289.82a3,3,0,0,1,2.95,2.95v9.28a3,3,0,0,1-2.95,2.95H59.14a3,3,0,0,1-2.94-2.95v-9.28a3,3,0,0,1,2.94-2.95h75.45m0-3H59.14a6,6,0,0,0-5.94,5.95v9.28A6,6,0,0,0,59.14,308h75.45a6,6,0,0,0,5.95-5.95v-9.28a6,6,0,0,0-5.95-5.95Z"/><rect class="cls-1" x="374.15" y="288.32" width="84.34" height="18.17" rx="4.45" ry="4.45"/><path class="cls-1" d="M454,289.82a3,3,0,0,1,2.95,2.95v9.28A3,3,0,0,1,454,305H378.6a3,3,0,0,1-3-2.95v-9.28a3,3,0,0,1,3-2.95H454m0-3H378.6a6,6,0,0,0-6,5.95v9.28a6,6,0,0,0,6,5.95H454a6,6,0,0,0,5.95-5.95v-9.28a6,6,0,0,0-5.95-5.95Z"/><path class="cls-2" d="M367.8,301.92a4.46,4.46,0,0,1-3.42-1.6l-3.15-3.78a1.43,1.43,0,0,0-1.11-.52H152.56a1.46,1.46,0,0,0-1.13.54l-3,3.71a4.41,4.41,0,0,1-3.45,1.65H51.45a4.47,4.47,0,0,1-4.27-3.22l-19.6-68.15H485.22l-19.6,68.15a4.47,4.47,0,0,1-4.27,3.22Z"/><path class="cls-1" d="M483.23,232.05l-19.05,66.23a2.94,2.94,0,0,1-2.83,2.14H367.8a3,3,0,0,1-2.27-1.06l-3.15-3.78a3,3,0,0,0-2.26-1.06H152.56a3,3,0,0,0-2.29,1.09l-3,3.71a2.93,2.93,0,0,1-2.29,1.1H51.45a2.94,2.94,0,0,1-2.83-2.14l-19-66.23H483.23m4-3H25.59l1.1,3.83,19,66.23a6,6,0,0,0,5.72,4.31H145a5.92,5.92,0,0,0,4.62-2.21l3-3.71,207.52,0,3.11,3.76a5.93,5.93,0,0,0,4.57,2.14h93.55a6,6,0,0,0,5.71-4.31l19.05-66.23,1.1-3.83Z"/><path class="cls-3" d="M481.29,220.43H365.52a3,3,0,0,0-3,2.64H150.33a3,3,0,0,0-3-2.64H31.93a3,3,0,0,0-3.07,2.95l12,45.54v22.52h5.91l.69,2.63h99.88a3,3,0,0,0,3-2.63H362.47a3,3,0,0,0,3,2.63H465.75l18.62-70.69A3,3,0,0,0,481.29,220.43Z"/><line class="cls-4" x1="53.53" y1="297.41" x2="45.07" y2="268.11"/><line class="cls-4" x1="59.05" y1="297.41" x2="50.59" y2="268.11"/><line class="cls-4" x1="64.56" y1="297.41" x2="56.1" y2="268.11"/><line class="cls-4" x1="70.07" y1="297.41" x2="61.61" y2="268.11"/><line class="cls-4" x1="75.58" y1="297.41" x2="67.12" y2="268.11"/><line class="cls-4" x1="81.09" y1="297.41" x2="72.63" y2="268.11"/><line class="cls-4" x1="86.6" y1="297.41" x2="78.14" y2="268.11"/><line class="cls-4" x1="92.11" y1="297.41" x2="83.65" y2="268.11"/><line class="cls-4" x1="97.63" y1="297.41" x2="89.17" y2="268.11"/><line class="cls-4" x1="103.14" y1="297.41" x2="94.68" y2="268.11"/><line class="cls-4" x1="459.67" y1="297.41" x2="468.13" y2="268.11"/><line class="cls-4" x1="454.15" y1="297.41" x2="462.61" y2="268.11"/><line class="cls-4" x1="448.64" y1="297.41" x2="457.1" y2="268.11"/><line class="cls-4" x1="443.13" y1="297.41" x2="451.59" y2="268.11"/><line class="cls-4" x1="437.62" y1="297.41" x2="446.08" y2="268.11"/><line class="cls-4" x1="432.11" y1="297.41" x2="440.57" y2="268.11"/><line class="cls-4" x1="426.6" y1="297.41" x2="435.06" y2="268.11"/><line class="cls-4" x1="421.09" y1="297.41" x2="429.55" y2="268.11"/><line class="cls-4" x1="415.57" y1="297.41" x2="424.03" y2="268.11"/><line class="cls-4" x1="410.06" y1="297.41" x2="418.52" y2="268.11"/><rect class="cls-5" x="23.67" y="222.65" width="116.81" height="61.93" rx="2.7" ry="2.7"/><rect class="cls-5" x="371.51" y="222.65" width="116.81" height="61.93" rx="2.7" ry="2.7"/><path class="cls-2" d="M125.9,278.84V212.12a4.65,4.65,0,0,1,4.65-4.65c.91,0,94.73-2,125.85-2h.12c31.87,0,127.35,1.95,128.32,2a4.64,4.64,0,0,1,4.61,4.65v66.72Z"/><path class="cls-1" d="M256.52,207c32.22,0,128.28,2,128.28,2a3.15,3.15,0,0,1,3.15,3.15v65.22H127.4V212.12a3.15,3.15,0,0,1,3.15-3.15s94.38-2,125.85-2h.12m0-3v0h-.12c-30.95,0-123.84,1.93-125.89,2a6.16,6.16,0,0,0-6.11,6.15v68.22H391V212.12a6.16,6.16,0,0,0-6.11-6.15c-2,0-96.61-2-128.32-2Z"/><ellipse class="cls-5" cx="87.98" cy="217" rx="28.83" ry="4.91"/><ellipse class="cls-5" cx="424.82" cy="217" rx="28.83" ry="4.91"/><rect class="cls-5" x="40.81" y="219.78" width="420.25" height="68.37"/><rect class="cls-6" x="146.38" y="221.12" width="3.98" height="65.53"/><rect class="cls-6" x="362.44" y="221.38" width="3.98" height="65.53"/><rect class="cls-5" x="29.57" y="216.13" width="116.81" height="73.63" rx="2.95" ry="2.95"/><rect class="cls-5" x="366.41" y="216.13" width="116.81" height="73.63" rx="2.95" ry="2.95"/><line class="cls-7" x1="146.38" y1="278.68" x2="29.57" y2="278.68"/><line class="cls-7" x1="483.23" y1="278.68" x2="366.41" y2="278.68"/><line class="cls-7" x1="366.41" y1="273.44" x2="146.38" y2="273.44"/><rect class="cls-8" x="162.29" y="237.16" width="81.91" height="40.18" rx="4.91" ry="4.91"/><rect class="cls-9" x="166.44" y="243.13" width="73.62" height="12.15" rx="1.8" ry="1.8"/><path class="cls-10" d="M168.24,259.64h70a1.8,1.8,0,0,1,1.8,1.8v5.44a4.91,4.91,0,0,1-4.91,4.91H171.36a4.91,4.91,0,0,1-4.91-4.91v-5.44a1.8,1.8,0,0,1,1.8-1.8Z"/><path class="cls-11" d="M171.16,263.08h18a.59.59,0,0,1,.59.59v3.85a.59.59,0,0,1-.59.59H173.52a2.95,2.95,0,0,1-2.95-2.95v-1.5a.59.59,0,0,1,.59-.59Z"/><path class="cls-11" d="M219.71,263.08h15.63a.59.59,0,0,1,.59.59v3.85a.59.59,0,0,1-.59.59h-18a.59.59,0,0,1-.59-.59V266a2.95,2.95,0,0,1,2.95-2.95Z" transform="translate(452.69 531.19) rotate(-180)"/><rect class="cls-11" x="193.67" y="263.08" width="19.17" height="5.03" rx="0.59" ry="0.59"/><line class="cls-12" x1="176.42" y1="253.08" x2="176.42" y2="245.34"/><line class="cls-12" x1="229.67" y1="253.08" x2="229.67" y2="245.34"/><rect class="cls-8" x="268.94" y="237.16" width="81.91" height="40.18" rx="4.91" ry="4.91"/><rect class="cls-13" x="273.09" y="243.13" width="73.62" height="12.15" rx="1.8" ry="1.8"/><rect class="cls-1" x="82.69" y="214.66" width="10.58" height="14.41"/><rect class="cls-14" x="86.42" y="214.66" width="2.97" height="11.71"/><line class="cls-12" x1="283.27" y1="253.08" x2="283.27" y2="245.34"/><line class="cls-12" x1="336.52" y1="253.08" x2="336.52" y2="245.34"/><path class="cls-10" d="M274.88,259.64h70a1.8,1.8,0,0,1,1.8,1.8v5.44a4.91,4.91,0,0,1-4.91,4.91H278a4.91,4.91,0,0,1-4.91-4.91v-5.44a1.8,1.8,0,0,1,1.8-1.8Z"/><path class="cls-11" d="M277.8,263.08h18a.59.59,0,0,1,.59.59v3.85a.59.59,0,0,1-.59.59H280.16a2.95,2.95,0,0,1-2.95-2.95v-1.5A.59.59,0,0,1,277.8,263.08Z"/><path class="cls-11" d="M326.36,263.08H342a.59.59,0,0,1,.59.59v3.85a.59.59,0,0,1-.59.59H324a.59.59,0,0,1-.59-.59V266a2.95,2.95,0,0,1,2.95-2.95Z" transform="translate(665.99 531.19) rotate(-180)"/><rect class="cls-11" x="300.31" y="263.08" width="19.17" height="5.03" rx="0.59" ry="0.59"/></svg>