<svg id="Layer_1" data-name="Layer 1" xmlns="http://www.w3.org/2000/svg" xmlns:xlink="http://www.w3.org/1999/xlink" viewBox="0 0 512 512"><defs><style>.cls-1{fill:#a1a5ad;}.cls-1,.cls-4,.cls-8{stroke:gray;}.cls-1,.cls-2,.cls-3,.cls-4,.cls-6,.cls-7,.cls-8{stroke-miterlimit:10;stroke-width:3px;}.cls-2,.cls-6,.cls-7,.cls-8{fill:#afb3bc;}.cls-2{stroke:url(#linear-gradient);}.cls-3,.cls-9{fill:gray;}.cls-3{stroke:lime;}.cls-4{fill:none;}.cls-5{fill:#4d4d4d;opacity:0.18;}.cls-6{stroke:url(#linear-gradient-2);}.cls-7{stroke:url(#linear-gradient-3);}</style><linearGradient id="linear-gradient" x1="115.55" y1="265.81" x2="98.98" y2="282.38" gradientUnits="userSpaceOnUse"><stop offset="0" stop-color="#b3b3b3"/><stop offset="0.11" stop-color="#a3a3a3"/><stop offset="0.32" stop-color="#888"/><stop offset="0.54" stop-color="#757575"/><stop offset="0.76" stop-color="#6a6a6a"/><stop offset="1" stop-color="#666"/></linearGradient><linearGradient id="linear-gradient-2" x1="137.13" y1="311.45" x2="99.41" y2="349.17" xlink:href="#linear-gradient"/><linearGradient id="linear-gradient-3" x1="412.56" y1="311.45" x2="374.84" y2="349.17" xlink:href="#linear-gradient"/></defs><title>ps1alt</title><rect class="cls-1" x="268.91" y="331.95" width="55.9" height="67.31" rx="16.63" ry="16.63"/><rect class="cls-1" x="187.19" y="331.95" width="55.9" height="67.31" rx="16.63" ry="16.63"/><rect class="cls-1" x="43.33" y="163.06" width="31.37" height="11.67" rx="3.28" ry="3.28" transform="translate(136.71 7.74) rotate(45)"/><rect class="cls-1" x="43.33" y="174" width="31.37" height="11.67" rx="3.28" ry="3.28" transform="translate(144.45 10.94) rotate(45)"/><rect class="cls-1" x="43.33" y="184.94" width="31.37" height="11.67" rx="3.28" ry="3.28" transform="translate(152.19 14.15) rotate(45)"/><rect class="cls-1" x="43.33" y="195.89" width="31.37" height="11.67" rx="3.28" ry="3.28" transform="translate(159.93 17.35) rotate(45)"/><rect class="cls-1" x="43.33" y="206.83" width="31.37" height="11.67" rx="3.28" ry="3.28" transform="translate(167.66 20.56) rotate(45)"/><rect class="cls-1" x="43.33" y="217.77" width="31.37" height="11.67" rx="3.28" ry="3.28" transform="translate(175.4 23.76) rotate(45)"/><rect class="cls-1" x="43.33" y="228.72" width="31.37" height="11.67" rx="3.28" ry="3.28" transform="translate(183.14 26.97) rotate(45)"/><rect class="cls-1" x="43.33" y="239.66" width="31.37" height="11.67" rx="3.28" ry="3.28" transform="translate(190.88 30.17) rotate(45)"/><rect class="cls-1" x="43.33" y="250.61" width="31.37" height="11.67" rx="3.28" ry="3.28" transform="translate(198.62 33.38) rotate(45)"/><rect class="cls-1" x="43.33" y="261.55" width="31.37" height="11.67" rx="3.28" ry="3.28" transform="translate(206.36 36.58) rotate(45)"/><rect class="cls-1" x="43.33" y="272.49" width="31.37" height="11.67" rx="3.28" ry="3.28" transform="translate(214.09 39.79) rotate(45)"/><rect class="cls-1" x="43.33" y="283.44" width="31.37" height="11.67" rx="3.28" ry="3.28" transform="translate(221.83 43) rotate(45)"/><rect class="cls-1" x="43.33" y="294.38" width="31.37" height="11.67" rx="3.28" ry="3.28" transform="translate(229.57 46.2) rotate(45)"/><rect class="cls-1" x="43.33" y="305.32" width="31.37" height="11.67" rx="3.28" ry="3.28" transform="translate(237.31 49.41) rotate(45)"/><rect class="cls-1" x="43.33" y="316.27" width="31.37" height="11.67" rx="3.28" ry="3.28" transform="translate(245.05 52.61) rotate(45)"/><rect class="cls-1" x="43.33" y="327.21" width="31.37" height="11.67" rx="3.28" ry="3.28" transform="translate(252.79 55.82) rotate(45)"/><rect class="cls-1" x="43.33" y="338.15" width="31.37" height="11.67" rx="3.28" ry="3.28" transform="translate(260.52 59.02) rotate(45)"/><rect class="cls-1" x="43.33" y="349.1" width="31.37" height="11.67" rx="3.28" ry="3.28" transform="translate(268.26 62.23) rotate(45)"/><rect class="cls-1" x="437.3" y="163.06" width="31.37" height="11.67" rx="3.28" ry="3.28" transform="translate(892.72 -31.99) rotate(135)"/><rect class="cls-1" x="437.3" y="174" width="31.37" height="11.67" rx="3.28" ry="3.28" transform="translate(900.46 -13.31) rotate(135)"/><rect class="cls-1" x="437.3" y="184.94" width="31.37" height="11.67" rx="3.28" ry="3.28" transform="translate(908.19 5.38) rotate(135)"/><rect class="cls-1" x="437.3" y="195.89" width="31.37" height="11.67" rx="3.28" ry="3.28" transform="translate(915.93 24.06) rotate(135)"/><rect class="cls-1" x="437.3" y="206.83" width="31.37" height="11.67" rx="3.28" ry="3.28" transform="translate(923.67 42.74) rotate(135)"/><rect class="cls-1" x="437.3" y="217.77" width="31.37" height="11.67" rx="3.28" ry="3.28" transform="translate(931.41 61.42) rotate(135)"/><rect class="cls-1" x="437.3" y="228.72" width="31.37" height="11.67" rx="3.28" ry="3.28" transform="translate(939.15 80.1) rotate(135)"/><rect class="cls-1" x="437.3" y="239.66" width="31.37" height="11.67" rx="3.28" ry="3.28" transform="translate(946.89 98.78) rotate(135)"/><rect class="cls-1" x="437.3" y="250.61" width="31.37" height="11.67" rx="3.28" ry="3.28" transform="translate(954.62 117.47) rotate(135)"/><rect class="cls-1" x="437.3" y="261.55" width="31.37" height="11.67" rx="3.28" ry="3.28" transform="translate(962.36 136.15) rotate(135)"/><rect class="cls-1" x="437.3" y="272.49" width="31.37" height="11.67" rx="3.28" ry="3.28" transform="translate(970.1 154.83) rotate(135)"/><rect class="cls-1" x="437.3" y="283.44" width="31.37" height="11.67" rx="3.28" ry="3.28" transform="translate(977.84 173.51) rotate(135)"/><rect class="cls-1" x="437.3" y="294.38" width="31.37" height="11.67" rx="3.28" ry="3.28" transform="translate(985.58 192.19) rotate(135)"/><rect class="cls-1" x="437.3" y="305.32" width="31.37" height="11.67" rx="3.28" ry="3.28" transform="translate(993.32 210.88) rotate(135)"/><rect class="cls-1" x="437.3" y="316.27" width="31.37" height="11.67" rx="3.28" ry="3.28" transform="translate(1001.05 229.56) rotate(135)"/><rect class="cls-1" x="437.3" y="327.21" width="31.37" height="11.67" rx="3.28" ry="3.28" transform="translate(1008.79 248.24) rotate(135)"/><rect class="cls-1" x="437.3" y="338.15" width="31.37" height="11.67" rx="3.28" ry="3.28" transform="translate(1016.53 266.92) rotate(135)"/><rect class="cls-1" x="437.3" y="349.1" width="31.37" height="11.67" rx="3.28" ry="3.28" transform="translate(1024.27 285.6) rotate(135)"/><path class="cls-1" d="M347.06,116v2.07H165.66V116a3.28,3.28,0,0,0-3.28-3.28H53.43A3.28,3.28,0,0,0,50.15,116v250.2a3.28,3.28,0,0,0,3.28,3.29h109a3.28,3.28,0,0,0,3.28-3.29v-1.17h181.4v1.17a3.28,3.28,0,0,0,3.28,3.29h109a3.28,3.28,0,0,0,3.28-3.29V116a3.28,3.28,0,0,0-3.28-3.28h-109A3.28,3.28,0,0,0,347.06,116Z"/><circle class="cls-2" cx="107.27" cy="274.09" r="10.21"/><line class="cls-3" x1="118.33" y1="371.17" x2="118.33" y2="354.39"/><line class="cls-4" x1="372.95" y1="316.06" x2="353.04" y2="302.23"/><path class="cls-5" d="M363,241.12A114.36,114.36,0,0,1,248.63,355.48c-31.67,0-60.34-19.44-81-40.25-.92-.92-1.82,4.71-2.71,3.75l-1.32-1.44a114,114,0,0,1-29.28-76.42c0-30.18,10.73-57.64,29.72-78.08,1.18-1.27.2-2.51,1.45-3.72.31-.31-.29,9.53.25,10.9.79,2.06,5-4,5.45-4.44,20.37-18.79,47.59-39,77.49-39A114.36,114.36,0,0,1,363,241.12Z"/><path class="cls-5" d="M378.34,241.12a114,114,0,0,1-30.17,77.41c-.85.92-1.71-5.84-2.58-4.95-.69.7-1.39,1.4-2.1,2.08-20.58,19.91-48.61,39.82-79.51,39.82a114.36,114.36,0,0,1,0-228.72c30.94,0,59,23.23,79.6,43.19,1.86,1.8,3.65-7.28,5.39-5.36A114,114,0,0,1,378.34,241.12Z"/><line class="cls-4" x1="165.66" y1="365.05" x2="165.66" y2="115"/><circle class="cls-6" cx="118.27" cy="330.31" r="25.17"/><line class="cls-4" x1="347.06" y1="365.05" x2="347.06" y2="115"/><circle class="cls-7" cx="393.7" cy="330.31" r="25.17"/><circle class="cls-8" cx="256.36" cy="241.12" r="114.36"/><circle class="cls-9" cx="331.69" cy="298.57" r="1.64"/><circle class="cls-9" cx="326.22" cy="304.05" r="1.64"/><circle class="cls-9" cx="320.74" cy="309.52" r="1.64"/><circle class="cls-9" cx="315.27" cy="314.99" r="1.64"/><circle class="cls-9" cx="336.06" cy="305.14" r="1.64"/><circle class="cls-9" cx="330.59" cy="310.61" r="1.64"/><circle class="cls-9" cx="325.12" cy="316.08" r="1.64"/><circle class="cls-9" cx="319.65" cy="321.56" r="1.64"/></svg>