<svg id="Layer_1" data-name="Layer 1" xmlns="http://www.w3.org/2000/svg" xmlns:xlink="http://www.w3.org/1999/xlink" viewBox="0 0 512 512"><defs><style>.cls-1,.cls-13,.cls-7{fill:none;}.cls-2,.cls-3{fill:#333;}.cls-10,.cls-12,.cls-13,.cls-2{stroke:#333;}.cls-10,.cls-12,.cls-13,.cls-2,.cls-7{stroke-miterlimit:10;}.cls-12,.cls-13,.cls-2,.cls-7{stroke-width:3px;}.cls-4{fill:url(#linear-gradient);}.cls-5{clip-path:url(#clip-path);}.cls-6{fill:url(#linear-gradient-2);}.cls-7{stroke:#ccc;}.cls-8{fill:#4d4d4d;}.cls-9{fill:#1a1a1a;}.cls-11{opacity:0.5;}.cls-12{fill:url(#linear-gradient-3);}</style><linearGradient id="linear-gradient" x1="254.38" y1="180.38" x2="254.38" y2="254.97" gradientUnits="userSpaceOnUse"><stop offset="0" stop-color="#666"/><stop offset="0.18" stop-color="#2c2c2c"/><stop offset="0.32"/></linearGradient><clipPath id="clip-path"><path class="cls-1" d="M45.21,181.88H463.53c17.94,0,19.43,71.59,19.43,71.59H25.78S26.62,181.88,45.21,181.88Z"/></clipPath><linearGradient id="linear-gradient-2" x1="252.93" y1="215.52" x2="252.93" y2="253.47" gradientUnits="userSpaceOnUse"><stop offset="0" stop-color="#fff"/><stop offset="0.33" stop-color="#fdfdfd"/><stop offset="0.5" stop-color="#f5f5f5"/><stop offset="0.63" stop-color="#e8e8e8"/><stop offset="0.74" stop-color="#d5d5d5"/><stop offset="0.84" stop-color="#bcbcbc"/><stop offset="0.93" stop-color="#9f9f9f"/><stop offset="1" stop-color="gray"/></linearGradient><linearGradient id="linear-gradient-3" x1="231.11" y1="330.12" x2="231.11" y2="319.89" gradientUnits="userSpaceOnUse"><stop offset="0" stop-color="#fff"/><stop offset="1" stop-color="gray"/></linearGradient></defs><title>ps3</title><rect class="cls-2" x="34.11" y="279.39" width="394.01" height="40.53"/><rect x="228.84" y="301.44" width="4.54" height="4.54"/><rect x="228.84" y="309.01" width="4.54" height="4.54"/><rect x="235.84" y="301.44" width="4.54" height="4.54"/><rect x="235.84" y="309.01" width="4.54" height="4.54"/><rect x="242.84" y="301.44" width="4.54" height="4.54"/><rect x="242.84" y="309.01" width="4.54" height="4.54"/><rect x="249.83" y="301.44" width="4.54" height="4.54"/><rect x="249.83" y="309.01" width="4.54" height="4.54"/><rect x="256.83" y="301.44" width="4.54" height="4.54"/><rect x="256.83" y="309.01" width="4.54" height="4.54"/><rect x="263.83" y="301.44" width="4.54" height="4.54"/><rect x="263.83" y="309.01" width="4.54" height="4.54"/><rect x="270.83" y="301.44" width="4.54" height="4.54"/><rect x="270.83" y="309.01" width="4.54" height="4.54"/><rect x="277.82" y="301.44" width="4.54" height="4.54"/><rect x="277.82" y="309.01" width="4.54" height="4.54"/><rect x="284.82" y="301.44" width="4.54" height="4.54"/><rect x="284.82" y="309.01" width="4.54" height="4.54"/><rect x="291.82" y="301.44" width="4.54" height="4.54"/><rect x="291.82" y="309.01" width="4.54" height="4.54"/><rect x="298.82" y="301.44" width="4.54" height="4.54"/><rect x="298.82" y="309.01" width="4.54" height="4.54"/><rect x="305.82" y="301.44" width="4.54" height="4.54"/><rect x="305.82" y="309.01" width="4.54" height="4.54"/><rect x="312.81" y="301.44" width="4.54" height="4.54"/><rect x="312.81" y="309.01" width="4.54" height="4.54"/><rect x="319.81" y="301.44" width="4.54" height="4.54"/><rect x="319.81" y="309.01" width="4.54" height="4.54"/><rect x="326.81" y="301.44" width="4.54" height="4.54"/><rect x="326.81" y="309.01" width="4.54" height="4.54"/><rect x="333.81" y="301.44" width="4.54" height="4.54"/><rect x="333.81" y="309.01" width="4.54" height="4.54"/><rect x="340.8" y="301.44" width="4.54" height="4.54"/><rect x="340.8" y="309.01" width="4.54" height="4.54"/><rect x="347.8" y="301.44" width="4.54" height="4.54"/><rect x="347.8" y="309.01" width="4.54" height="4.54"/><rect x="354.8" y="301.44" width="4.54" height="4.54"/><rect x="354.8" y="309.01" width="4.54" height="4.54"/><rect x="361.8" y="301.44" width="4.54" height="4.54"/><rect x="361.8" y="309.01" width="4.54" height="4.54"/><rect x="368.8" y="301.44" width="4.54" height="4.54"/><rect x="368.8" y="309.01" width="4.54" height="4.54"/><rect x="375.79" y="301.44" width="4.54" height="4.54"/><rect x="375.79" y="309.01" width="4.54" height="4.54"/><rect x="382.79" y="301.44" width="4.54" height="4.54"/><rect x="382.79" y="309.01" width="4.54" height="4.54"/><rect x="389.79" y="301.44" width="4.54" height="4.54"/><rect x="389.79" y="309.01" width="4.54" height="4.54"/><rect x="396.79" y="301.44" width="4.54" height="4.54"/><rect x="396.79" y="309.01" width="4.54" height="4.54"/><path d="M34.22,296.24a4.73,4.73,0,0,1-4.2-2.55l-5.21-10a4.71,4.71,0,0,1-.53-2.18V252H483.93l3.94,8.9v22.38a4.65,4.65,0,0,1-.7,2.46L482.11,294a4.76,4.76,0,0,1-4,2.26Z"/><path class="cls-3" d="M483,253.47l3.41,7.71v22.07a3.24,3.24,0,0,1-.48,1.68l-5.05,8.27a3.26,3.26,0,0,1-2.76,1.54H34.22A3.23,3.23,0,0,1,31.35,293l-5.21-10a3.21,3.21,0,0,1-.36-1.49v-28H483m2-3H22.78v31a6.21,6.21,0,0,0,.7,2.87l5.21,10a6.21,6.21,0,0,0,5.53,3.36H478.08a6.26,6.26,0,0,0,5.31-3l5.06-8.27a6.21,6.21,0,0,0,.92-3.24v-22.7l-.26-.58-3.41-7.71-.79-1.79Z"/><path class="cls-4" d="M24.26,255l0-1.52c.09-7.48,1.42-73.07,20.93-73.07H463.53c18.87,0,20.77,65.58,20.93,73.06l0,1.53Z"/><path class="cls-3" d="M463.53,181.88c17.94,0,19.43,71.59,19.43,71.59H25.78s.84-71.59,19.43-71.59H463.53m0-3H45.21c-9.57,0-16,12.55-19.66,38.37a324.1,324.1,0,0,0-2.77,36.19l0,3H486l-.06-3.06a339.51,339.51,0,0,0-3-36.17c-3.77-25.81-10.12-38.36-19.41-38.36Z"/><g class="cls-5"><path class="cls-6" d="M10.88,215.52H491.31c.42,0,2.43,9.16,3.2,18.47a172.8,172.8,0,0,1,.34,19.48h-484Z"/><path d="M11.59,220.51H256.83v33H6.93S8.24,220.51,11.59,220.51Z"/><line class="cls-7" x1="491.31" y1="213.9" x2="10.88" y2="213.9"/></g><rect class="cls-3" x="268.37" y="223.33" width="199.34" height="10.09"/><rect x="274.86" y="226.56" width="182.95" height="3.59"/><polygon class="cls-8" points="25.78 253.11 482.96 253.11 486.37 261.18 25.78 263.61 25.78 253.11"/><path class="cls-9" d="M25.78,261.18H486.37v22.43L27.7,284c-1.78,0-1.92-1.78-1.92-3.56Z"/><rect class="cls-10" x="46.03" y="305.37" width="16.16" height="7.27"/><rect class="cls-3" x="47.87" y="307.18" width="12.49" height="0.88"/><rect class="cls-10" x="65.41" y="305.37" width="16.16" height="7.27"/><rect class="cls-3" x="67.25" y="307.18" width="12.49" height="0.88"/><rect class="cls-10" x="84.79" y="305.37" width="16.16" height="7.27"/><rect class="cls-3" x="86.63" y="307.18" width="12.49" height="0.88"/><rect class="cls-10" x="104.17" y="305.37" width="16.16" height="7.27"/><rect class="cls-3" x="106.01" y="307.18" width="12.49" height="0.88"/><rect class="cls-11" x="36.18" y="294.74" width="390.53" height="11.24"/><path class="cls-12" d="M34.11,319.89h394l1.08,5.11c.54,2.58-1,5.12-3.12,5.12H36.15c-2.12,0-3.66-2.54-3.12-5.12Z"/><line class="cls-13" x1="486.37" y1="261.18" x2="25.78" y2="261.18"/><line class="cls-13" x1="487.12" y1="284.49" x2="24.88" y2="284.49"/><line class="cls-13" x1="484.74" y1="253.11" x2="25.78" y2="253.11"/></svg>