<svg id="Layer_1" data-name="Layer 1" xmlns="http://www.w3.org/2000/svg" xmlns:xlink="http://www.w3.org/1999/xlink" viewBox="0 0 512 512"><defs><style>.cls-1,.cls-10,.cls-2,.cls-3,.cls-9{stroke:#999;}.cls-1,.cls-10,.cls-2,.cls-3,.cls-7,.cls-9{stroke-miterlimit:10;}.cls-1,.cls-2,.cls-3,.cls-7,.cls-9{stroke-width:3px;}.cls-1{fill:url(#linear-gradient);}.cls-2{fill:url(#linear-gradient-2);}.cls-3{fill:url(#linear-gradient-3);}.cls-4{fill:#4d4d4d;}.cls-5{fill:#5ebbef;}.cls-6{fill:url(#linear-gradient-4);}.cls-10,.cls-7,.cls-9{fill:none;}.cls-7{stroke:#000;stroke-linecap:round;}.cls-8{fill:#fff;opacity:0.6;}.cls-11{fill:#999;}.cls-12{fill:lime;}</style><linearGradient id="linear-gradient" x1="91.55" y1="301.76" x2="91.55" y2="323.67" gradientUnits="userSpaceOnUse"><stop offset="0.83" stop-color="#b3b3b3"/><stop offset="0.83" stop-color="#f2f2f2"/></linearGradient><linearGradient id="linear-gradient-2" x1="426.88" y1="301.76" x2="426.88" y2="323.67" xlink:href="#linear-gradient"/><linearGradient id="linear-gradient-3" x1="256" y1="188.33" x2="256" y2="316.04" gradientUnits="userSpaceOnUse"><stop offset="0.82" stop-color="#f2f2f2"/><stop offset="0.82" stop-color="#ccc"/></linearGradient><linearGradient id="linear-gradient-4" x1="256" y1="207.82" x2="256" y2="235.51" gradientUnits="userSpaceOnUse"><stop offset="0.57" stop-color="#b3b3b3"/><stop offset="1" stop-color="#e6e6e6"/></linearGradient></defs><title>wiiu</title><rect class="cls-1" x="69.66" y="301.76" width="43.77" height="21.9" rx="6.12" ry="6.12"/><rect class="cls-2" x="404.99" y="301.76" width="43.77" height="21.9" rx="6.12" ry="6.12"/><path class="cls-3" d="M482.51,316H29.5a3.62,3.62,0,0,1-3.6-3.26l-2.08-20.84V192a3.61,3.61,0,0,1,3.61-3.62H484.57a3.61,3.61,0,0,1,3.61,3.62v100.8l-2.07,20.05A3.61,3.61,0,0,1,482.51,316Z"/><path class="cls-4" d="M73.4,228.6a6.94,6.94,0,1,1,0-13.87L256,212.32l182.58,2.41a6.94,6.94,0,1,1,0,13.87L256,231Z"/><path class="cls-5" d="M256,213.82l182.62,2.41a5.44,5.44,0,1,1,0,10.87L256,229.51,73.38,227.1a5.44,5.44,0,1,1,0-10.87L256,213.82m0-3L73.38,213.23a8.44,8.44,0,1,0,0,16.87L256,232.51l182.62-2.41a8.44,8.44,0,1,0,0-16.87L256,210.82Z"/><path class="cls-6" d="M256,210.82l182.62,2.41a8.44,8.44,0,1,1,0,16.87L256,232.51,73.38,230.1a8.44,8.44,0,1,1,0-16.87L256,210.82m0-3h0L73.34,210.23a11.44,11.44,0,0,0,0,22.87L256,235.51H256l182.62-2.41a11.44,11.44,0,0,0,0-22.87L256,207.82Z"/><line class="cls-7" x1="87.94" y1="221.66" x2="424.06" y2="221.66"/><rect class="cls-8" x="168.05" y="264.63" width="182.32" height="38.55" rx="4.82" ry="4.82"/><path class="cls-8" d="M71.09,264.63h13a1.43,1.43,0,0,1,1.42,1.43v27.29l1.21,8.41a1.43,1.43,0,0,1-1.42,1.43h-13a1.43,1.43,0,0,1-1.42-1.43l-1.21-9V266.06A1.43,1.43,0,0,1,71.09,264.63Z"/><path class="cls-8" d="M114.63,264.63h8.86a1.2,1.2,0,0,1,1.2,1.2v27.92l1.2,8.24a1.2,1.2,0,0,1-1.2,1.2h-8.85a1.2,1.2,0,0,1-1.2-1.2l-1.2-8.44V265.83A1.19,1.19,0,0,1,114.63,264.63Z"/><path class="cls-8" d="M434.13,264.63h13.2a1.44,1.44,0,0,1,1.43,1.43v27.49l-1.2,8.21a1.44,1.44,0,0,1-1.43,1.43H432.92a1.44,1.44,0,0,1-1.43-1.43l1.21-8.41V266.06A1.44,1.44,0,0,1,434.13,264.63Z"/><rect class="cls-9" x="168.05" y="264.63" width="182.32" height="38.55" rx="4.82" ry="4.82"/><path class="cls-9" d="M71.09,264.63h13a1.43,1.43,0,0,1,1.42,1.43v27.29l1.21,8.41a1.43,1.43,0,0,1-1.42,1.43h-13a1.43,1.43,0,0,1-1.42-1.43l-1.21-9V266.06A1.43,1.43,0,0,1,71.09,264.63Z"/><path class="cls-9" d="M114.63,264.63h8.86a1.2,1.2,0,0,1,1.2,1.2v27.92l1.2,8.24a1.2,1.2,0,0,1-1.2,1.2h-8.85a1.2,1.2,0,0,1-1.2-1.2l-1.2-8.44V265.83A1.19,1.19,0,0,1,114.63,264.63Z"/><path class="cls-9" d="M434.13,264.63h13.2a1.44,1.44,0,0,1,1.43,1.43v27.49l-1.2,8.21a1.44,1.44,0,0,1-1.43,1.43H432.92a1.44,1.44,0,0,1-1.43-1.43l1.21-8.41V266.06A1.44,1.44,0,0,1,434.13,264.63Z"/><circle class="cls-10" cx="77.35" cy="276.66" r="3.42"/><rect class="cls-11" x="76.5" y="271.26" width="1.7" height="4.35"/><circle class="cls-12" cx="77.35" cy="287.52" r="2.1"/><polygon class="cls-11" points="440.7 273.03 436.46 277.42 444.95 277.42 440.7 273.03"/><line class="cls-10" x1="435.97" y1="279.55" x2="445.44" y2="279.55"/><path class="cls-11" d="M246.46,263.43H272a0,0,0,0,1,0,0v3a1.2,1.2,0,0,1-1.2,1.2H247.67a1.2,1.2,0,0,1-1.2-1.2v-3A0,0,0,0,1,246.46,263.43Z"/></svg>