<svg id="Layer_1" data-name="Layer 1" xmlns="http://www.w3.org/2000/svg" xmlns:xlink="http://www.w3.org/1999/xlink" viewBox="0 0 512 512"><defs><style>.cls-1{fill:#333;}.cls-1,.cls-5,.cls-6{stroke:#666;stroke-width:3px;}.cls-1,.cls-10,.cls-5,.cls-6{stroke-miterlimit:10;}.cls-2{fill:#161616;}.cls-3{fill:#494848;}.cls-4{fill:url(#linear-gradient);}.cls-10,.cls-6{fill:none;}.cls-7{fill:url(#linear-gradient-2);}.cls-10,.cls-8{opacity:0.51;}.cls-9{fill:#999;}.cls-10{stroke:#999;}</style><linearGradient id="linear-gradient" x1="141.63" y1="244.81" x2="141.63" y2="256" gradientUnits="userSpaceOnUse"><stop offset="0" stop-color="#fff"/><stop offset="1" stop-color="#ccc"/></linearGradient><linearGradient id="linear-gradient-2" x1="447.2" y1="259.67" x2="447.2" y2="241.59" xlink:href="#linear-gradient"/></defs><title>xbone</title><polygon class="cls-1" points="24.79 204.23 487.21 204.23 489.21 209.01 489.21 292.51 481.21 307.77 31.79 307.77 22.79 293.51 22.79 259.01 25.79 256 25.79 245.51 22.79 242.44 22.79 209.01 24.79 204.23"/><polygon class="cls-2" points="487.13 293.25 480.29 306.25 32.67 306.33 24.92 294 487.13 293.25"/><polygon class="cls-3" points="27.28 256 255.78 255 255.78 259.53 24.31 259.53 27.28 256"/><rect class="cls-4" x="27.25" y="244.81" width="228.75" height="11.19"/><path class="cls-5" d="M256,204.23H487.21l2,4.79v83.14a.35.35,0,0,1-.35.36H256Z"/><line class="cls-6" x1="22.79" y1="209.02" x2="489.21" y2="209.02"/><line class="cls-6" x1="256" y1="292.52" x2="22.79" y2="292.52"/><circle class="cls-7" cx="447.2" cy="250.63" r="9.04"/><rect class="cls-2" x="43.06" y="248.32" width="192.67" height="4.17"/><g class="cls-8"><path class="cls-9" d="M246.42,249.17l1.2,2.06h-2.39l1.19-2.06m0-2-2.92,5.06h5.85l-2.93-5.06Z"/></g><line class="cls-10" x1="243.5" y1="253.55" x2="249.35" y2="253.55"/></svg>